<svg id="Capa_1" data-name="Capa 1" xmlns="http://www.w3.org/2000/svg" viewBox="0 0 221.66 209.29"><defs><style>.cls-1{fill:#f6f6f6;}.cls-2{fill:#fff;}.cls-3{fill:#636865;}.cls-4{fill:#60ad30;}.cls-5{fill:#01474c;}.cls-6{fill:#00474c;}.cls-7{fill:#ec7c0b;}.cls-8{fill:#ec7d0b;}.cls-9{fill:#ec7d0c;}.cls-10{fill:#100e0f;}.cls-11{fill:#60ad31;}.cls-12{fill:#636866;}.cls-13{fill:#161414;}.cls-14{fill:#0a0808;}.cls-15{fill:#141111;}.cls-16{fill:#191514;}.cls-17{fill:#262525;}.cls-18{fill:#474645;}.cls-19{fill:#262628;}.cls-20{fill:#53524f;}.cls-21{fill:#080708;}.cls-22{fill:#383735;}.cls-23{fill:#090809;}.cls-24{fill:#3a3931;}.cls-25{fill:#2a231e;}.cls-26{fill:#1a130c;}.cls-27{fill:#1a140f;}.cls-28{fill:#6a6363;}.cls-29{fill:#746d6d;}.cls-30{fill:#2b2a2b;}.cls-31{fill:#1d1b1d;}.cls-32{fill:#64ae35;}.cls-33{fill:#1f1f21;}.cls-34{fill:#6a6463;}.cls-35{fill:#1a191a;}.cls-36{fill:#110f10;}.cls-37{fill:#767779;}.cls-38{fill:#6b6667;}.cls-39{fill:#968e8c;}.cls-40{fill:#615c5c;}.cls-41{fill:#94908f;}.cls-42{fill:#847f7f;}.cls-43{fill:#7c7776;}.cls-44{fill:#a29e9d;}.cls-45{fill:#a8a4a4;}.cls-46{fill:#8a8584;}.cls-47{fill:#797475;}.cls-48{fill:#908a8a;}.cls-49{fill:#7f7a79;}.cls-50{fill:#8b8483;}.cls-51{fill:#fefefe;}.cls-52{fill:#ec7d0d;}.cls-53{fill:#f8f9fa;}.cls-54{fill:#eff2f4;}.cls-55{fill:#e7e5e1;}.cls-56{fill:#edf0f3;}.cls-57{fill:#fdfefe;}.cls-58{fill:#fcfdfd;}.cls-59{fill:#f9fafa;}.cls-60{fill:#fafbfb;}.cls-61{fill:#fbfcfc;}.cls-62{fill:#e9edef;}.cls-63{fill:#e7dcd1;}.cls-64{fill:#c9d1d5;}.cls-65{fill:#fcfaf8;}.cls-66{fill:#fdf5ee;}.cls-67{fill:#fffefe;}.cls-68{fill:#f4f2f0;}.cls-69{fill:#fdfdfd;}.cls-70{fill:#fcfcfc;}.cls-71{fill:#6c6564;}.cls-72{fill:#4e4540;}.cls-73{fill:#61ad31;}.cls-74{fill:#60ad32;}.cls-75{fill:#eb7d0f;}.cls-76{fill:#ea7d10;}.cls-77{fill:#586b4c;}.cls-78{fill:#767070;}.cls-79{fill:#4f6349;}</style></defs><title>logo</title><path class="cls-1" d="M411.1,350.27a3.05,3.05,0,0,0-1.88-.5,1.49,1.49,0,0,1-1.29-1.08,8.49,8.49,0,0,1,2.55.52c26.46,12.2,54.29,19.93,82.78,25.51a8.55,8.55,0,0,1-2.19-.13c-.74-.11-1.49-.14-2.23-.2-8.06-.6-15.71-3.05-23.39-5.31-8.28-2.44-16.6-4.76-24.81-7.44a273.34,273.34,0,0,1-29-11.15Z" transform="translate(-304.92 -196.3)"/><path class="cls-1" d="M410.93,345c-.89-.4-1.79-.76-2.65-1.19-.42-.21-1.15-.41-.87-1s.93-.24,1.4-.09a21.4,21.4,0,0,1,3,1.36l.64.28a75.84,75.84,0,0,0,13.67,6.75,142.63,142.63,0,0,0,25.16,7.13,28.1,28.1,0,0,0,4.17.68,21.36,21.36,0,0,0,4,.7c3.93.44,7.87.82,11.81,1.22.19,0,.4,0,.51.22-1.65.31-11.21-.38-15.22-1.11a2,2,0,0,1-1.6.07,151.2,151.2,0,0,1-32.06-9.47c-3.57-1.45-7.05-3.11-10.57-4.68A4.47,4.47,0,0,1,410.93,345Z" transform="translate(-304.92 -196.3)"/><path class="cls-1" d="M409.73,347.62c-.45-.67-1.21-.76-1.89-1-.24-.1-.6-.16-.5-.51s.41-.42.75-.43.61.32,1,.41a1.3,1.3,0,0,1,1.11.24,204.46,204.46,0,0,0,22.07,9.31c6.57,2.43,13.28,4.46,20,6.27a1.63,1.63,0,0,1,1.11.59c-.05.39-.27.38-.55.24-2.36-.41-4.66-1.07-7-1.68A183.52,183.52,0,0,1,419,351.86q-4.14-1.82-8.15-3.93C410.49,347.76,410.18,347.41,409.73,347.62Z" transform="translate(-304.92 -196.3)"/><path class="cls-1" d="M435.85,366.72c1.45.77,3,1.28,4.5,1.93l4.07,1.75c2.06.88,4.12,1.76,6.11,2.75,3.09,1.52,6.22,3,9.27,4.58s6,3.1,9,4.66a2.72,2.72,0,0,1,1,.62l-.45.05a8.1,8.1,0,0,1-2.71-1c-4.78-2.37-9.52-4.81-14.36-7.06-.53-.25-1.08-.46-1.62-.69-1.22-.67-2.51-1.19-3.78-1.75l-3.66-1.63a2,2,0,0,1-1.06-.7c-2.67-1.3-5.38-2.48-8.16-3.52a92.82,92.82,0,0,1-10.28-4.22c-3.48-1.77-7.11-3.22-10.64-4.89-.11-.05-.22-.08-.33-.14-.38-.2-.94-.44-.71-.9s.74,0,1.07.12c1.38.64,2.64,1.52,4.08,2.07a5.2,5.2,0,0,1,2.41.84c4.94,2.25,10,4.28,15,6.34A2.65,2.65,0,0,1,435.85,366.72Z" transform="translate(-304.92 -196.3)"/><path class="cls-1" d="M450.91,368.3q-5-1.71-10.12-3.19a5,5,0,0,1-1.61-.29c-7.61-2.52-15.18-5.15-22.54-8.36a6.33,6.33,0,0,1-1.69-1l-4.24-2.2a2.11,2.11,0,0,1-.93-.69c-.08-.13-.18-.26-.1-.42a.38.38,0,0,1,.49-.2c.66.21,1.32.44,2,.67A89.47,89.47,0,0,0,423.26,358c8.5,3.57,17.19,6.6,26,9.32,1.46.46,2.89,1,4.36,1.42,2,.58,4,1.23,6.06,1.85.05.19,0,.32-.21.2-2.52-.74-5-1.47-7.54-2.22A5.18,5.18,0,0,0,450.91,368.3Z" transform="translate(-304.92 -196.3)"/><path class="cls-1" d="M452.83,362.72c.16-.08.38,0,.49-.22.44-.38.91-.13,1.35,0,3.17.73,6.37,1.34,9.48,2.32a37.43,37.43,0,0,0,4.71,1,20.68,20.68,0,0,0,3.6.51,19.55,19.55,0,0,0,3.79.67q4.42.63,8.88,1.11t8.69.77c2.94.21,5.88.42,8.82.56a23.83,23.83,0,0,1,3.26.32,17.53,17.53,0,0,1-3.62.06c-2.71-.12-5.42-.28-8.13-.45q-4.47-.29-8.91-.84c-3-.37-6.08-.78-9.11-1.21q-5.29-.76-10.56-1.75-6.13-1.14-12.21-2.55A1.15,1.15,0,0,1,452.83,362.72Z" transform="translate(-304.92 -196.3)"/><path class="cls-1" d="M430.59,368.75c-4-2.2-8.07-4.19-12.2-6.1a16.55,16.55,0,0,0-1.94-.46.79.79,0,0,1,0-.62,3.76,3.76,0,0,1,2.13.53c3.32,1.41,6.47,3.18,9.64,4.88,1.31.7,2.56,1.51,3.93,2.1,2,.63,3.69,2,5.58,2.89.72.54,1.56.87,2.31,1.37.32.22.7.36.82.79a.3.3,0,0,1-.18.26c-1.14,0-1.86-.88-2.81-1.29-.49-.21-.92-.56-1.42-.78-1.78-1-3.56-2-5.31-3C430.92,369.17,430.64,369.07,430.59,368.75Z" transform="translate(-304.92 -196.3)"/><path class="cls-1" d="M451.69,380.5a17.17,17.17,0,0,0,2.92,1.93c1.4.87,2.74,1.82,4.12,2.69l2.41,1.74c0,.19-.09.34-.33.2l-3.68-2.43a29.69,29.69,0,0,0-3.48-2.38c-1.22-.78-2.46-1.52-3.69-2.28-.71.17-1.19-.32-1.69-.64-1.1-.69-2.21-1.35-3.32-2s-2.33-1.39-3.47-2.14c-.32-.2-.71-.35-.73-.82a1.34,1.34,0,0,1,.11-.14c.52-.2.92.11,1.3.35,1.21.75,2.46,1.41,3.68,2.13,1.59,1,3.22,1.93,4.81,2.91C451.05,379.84,451.52,380,451.69,380.5Z" transform="translate(-304.92 -196.3)"/><path class="cls-1" d="M459.47,370.75l.21-.2,11.57,3.32,7.85,2.28c.18.05.4,0,.45.27l0,0a5,5,0,0,1-2.15-.46c-5.86-1.64-11.71-3.31-17.56-5A2.16,2.16,0,0,1,459.47,370.75Z" transform="translate(-304.92 -196.3)"/><path class="cls-1" d="M442.25,385.13c.49-.72,1.19-.48,1.86-.41-.4.27-.92,0-1.38.31.88.92,1.74,1.81,2.59,2.72a29.21,29.21,0,0,1,2.31,2.75C445.75,388.79,444,387,442.25,385.13Z" transform="translate(-304.92 -196.3)"/><path class="cls-1" d="M460.81,387.06l.33-.2a47.57,47.57,0,0,1,5.24,4.13l-.11.12C464.4,389.83,462.61,388.44,460.81,387.06Z" transform="translate(-304.92 -196.3)"/><path class="cls-1" d="M458.38,394.57l-4.75-4.75A25.43,25.43,0,0,1,458.38,394.57Z" transform="translate(-304.92 -196.3)"/><path class="cls-1" d="M453,396.71a20.63,20.63,0,0,1,2.73,3.76l-.1.08c-1.09-1.2-2-2.54-3-3.84A.23.23,0,0,1,453,396.71Z" transform="translate(-304.92 -196.3)"/><path class="cls-1" d="M451.82,395.61a26.42,26.42,0,0,1-2.35-2.84c0-.12,0-.16.16-.15a18.28,18.28,0,0,1,2.35,2.84C452,395.59,451.94,395.64,451.82,395.61Z" transform="translate(-304.92 -196.3)"/><path class="cls-1" d="M462.17,391.48a13.58,13.58,0,0,1,2.75,2.09c-.63,0-1-.53-1.49-.85s-.91-.71-1.37-1.07C462,391.5,462,391.45,462.17,391.48Z" transform="translate(-304.92 -196.3)"/><path class="cls-1" d="M482.17,377.11a5.51,5.51,0,0,1-2.6-.71l0,0a5.63,5.63,0,0,1,2.6.71Z" transform="translate(-304.92 -196.3)"/><path class="cls-1" d="M449.47,392.77a5.27,5.27,0,0,1-1.3-1.66,4.89,4.89,0,0,1,1.46,1.51A1.1,1.1,0,0,1,449.47,392.77Z" transform="translate(-304.92 -196.3)"/><path class="cls-1" d="M467.61,392a4.79,4.79,0,0,1,1.41,1.16c0,.11,0,.15-.14.14a5.75,5.75,0,0,1-1.38-1.12C467.39,392,467.43,391.92,467.61,392Z" transform="translate(-304.92 -196.3)"/><path class="cls-1" d="M465.89,394.4a2.24,2.24,0,0,1,1.26.9A1.71,1.71,0,0,1,465.89,394.4Z" transform="translate(-304.92 -196.3)"/><path class="cls-1" d="M466.38,391a3.83,3.83,0,0,1,1.23,1,1.74,1.74,0,0,0-.11.18,5.48,5.48,0,0,1-1.23-1Z" transform="translate(-304.92 -196.3)"/><path class="cls-1" d="M453,396.71h-.35a5.57,5.57,0,0,1-.83-1.1l.16-.15A5.13,5.13,0,0,1,453,396.71Z" transform="translate(-304.92 -196.3)"/><path class="cls-1" d="M469,393.11a2.23,2.23,0,0,1,1,1,2.17,2.17,0,0,1-1.16-.83A.38.38,0,0,1,469,393.11Z" transform="translate(-304.92 -196.3)"/><path class="cls-1" d="M459.49,389.62a1.47,1.47,0,0,1,1,.69l0,0a1.52,1.52,0,0,1-1-.66Z" transform="translate(-304.92 -196.3)"/><path class="cls-1" d="M462.06,391.65c-.32-.27-.8-.35-.93-.83h0a2,2,0,0,1,1,.67C462.13,391.54,462.1,391.6,462.06,391.65Z" transform="translate(-304.92 -196.3)"/><path class="cls-1" d="M482.87,377.36l1,.05c-.47.18-.73.21-1-.07Z" transform="translate(-304.92 -196.3)"/><path class="cls-1" d="M461.13,390.82c-.38.05-.56-.19-.72-.47l0,0a.76.76,0,0,1,.68.5Z" transform="translate(-304.92 -196.3)"/><path class="cls-1" d="M459.43,389.69a.92.92,0,0,1-.7-.49l.08-.09a.86.86,0,0,1,.68.51Z" transform="translate(-304.92 -196.3)"/><path class="cls-1" d="M455.73,400.47a.63.63,0,0,1,.36.71,1,1,0,0,1-.46-.63Z" transform="translate(-304.92 -196.3)"/><path class="cls-1" d="M482.89,377.34c-.25,0-.57.14-.72-.23l0,0c.25.05.58-.14.72.23Z" transform="translate(-304.92 -196.3)"/><path class="cls-1" d="M431.83,371.69c-.46.11-.71-.27-1-.47-1.55-1-3.07-2-4.6-3.05-.06-.21-.41-.36-.2-.61s.35,0,.5.13c.35.24.68.52,1,.78A24.83,24.83,0,0,0,431,371C431.29,371.19,431.72,371.26,431.83,371.69Z" transform="translate(-304.92 -196.3)"/><path class="cls-1" d="M420.74,367.72c.47.55,1.25.72,1.64,1.38a11.34,11.34,0,0,1-2.16-1.12,4.42,4.42,0,0,0-1.4-.58c-.34-.35-.9-.44-1.13-1,.24-.3.49-.18.72-.05C419.19,366.82,420,367.28,420.74,367.72Z" transform="translate(-304.92 -196.3)"/><path class="cls-1" d="M424.29,368.1a15.69,15.69,0,0,1,2.58,1.94c-.59,0-1-.47-1.42-.73a30.29,30.29,0,0,0-2.73-1.53c-.28-.19-.63-.29-.86-.72C422.93,367,423.51,367.79,424.29,368.1Z" transform="translate(-304.92 -196.3)"/><path class="cls-1" d="M433.7,377.56a61.3,61.3,0,0,0-5.95-4.72c-1.45-1.12-3-2-4.52-3.07-.31-.21-.71-.32-.88-.7A27.78,27.78,0,0,1,427.3,372l1.25.86,6,4.74c.37.67,1.24.87,1.5,1.63-.62-.08-.9-.64-1.37-.95S434,377.8,433.7,377.56Z" transform="translate(-304.92 -196.3)"/><path class="cls-1" d="M433.4,372.45l2.37,1.66c-1.26-.28-2.15-1.23-3.29-1.72l0-.25C432.88,372,433.07,372.44,433.4,372.45Z" transform="translate(-304.92 -196.3)"/><path class="cls-1" d="M430.89,372.61l-.51,0-3-2c-.21-.14-.55-.16-.52-.53.32-.14.51.13.72.28A21.66,21.66,0,0,1,430.89,372.61Z" transform="translate(-304.92 -196.3)"/><path class="cls-1" d="M431.29,372.62l5.84,4a1.86,1.86,0,0,1,.77.66c-.4.09-.56-.18-.77-.32q-2.82-1.83-5.61-3.69c-.25-.16-.6-.24-.64-.62Z" transform="translate(-304.92 -196.3)"/><path class="cls-1" d="M442.85,307.37c-.32-.16-.64-.33-1-.46a5.66,5.66,0,0,1-3.36-2.94l3.1,1.65c.61-.26,1.06.15,1.52.39a135.53,135.53,0,0,0,12.43,5.58c1.21.51,2.41,1,3.65,1.4a179,179,0,0,0,17.09,5.35,5.89,5.89,0,0,1,2.11.69.29.29,0,0,1,0,.35,43,43,0,0,1-5.71-1.34c-4.75-1.24-9.39-2.79-14-4.45l-.68-.22a5.62,5.62,0,0,1-3.15-1.16l-11.66-4.64Z" transform="translate(-304.92 -196.3)"/><path class="cls-1" d="M459.73,309a46,46,0,0,0,6.36,1.41,13.6,13.6,0,0,1,4.31.47c5.61.87,11.19,1.87,16.84,2.38,3.5.31,7,.06,10.51.14.61,0,1.27-.15,1.78.38-.36.34-.81.21-1.23.21h-7c-.41,0-.87-.14-1.23.2a1.52,1.52,0,0,1-1.43.31c-4.85-.48-9.67-1.16-14.47-2-3-.51-6.06-.92-9-1.58-2-.49-4.06-.84-6.07-1.36-3.29-.88-6.59-1.72-9.86-2.66a3.94,3.94,0,0,1-1.93-.78c-.08-.41.3-.3.49-.41,2.57.73,5.14,1.49,7.72,2.2A34.3,34.3,0,0,0,459.73,309Z" transform="translate(-304.92 -196.3)"/><path class="cls-1" d="M440.41,301.38a20.45,20.45,0,0,1-3-1.21,2.56,2.56,0,0,1-1.22-1.13c.45-.42.92-.21,1.4-.1s.93.42,1.47.31a81.33,81.33,0,0,0,11.13,3.32c.46.1.88.3,1.33.43A56.31,56.31,0,0,1,440.41,301.38Z" transform="translate(-304.92 -196.3)"/><path class="cls-1" d="M475.1,304.66a25.32,25.32,0,0,0-4.35-.15c-1.93,0-3.84-.36-5.77-.25a28.87,28.87,0,0,0-3.34-.35,38.55,38.55,0,0,1,4-.11,18.63,18.63,0,0,0,3.42.17c2.31,0,4.63,0,6.95,0,2.75.15,5.5.06,8.24,0a110.31,110.31,0,0,0,11.48-.93,14.93,14.93,0,0,1,1.64,0,.32.32,0,0,0,0,.14c-1.1.86-2.45.72-3.71.86a98.62,98.62,0,0,1-13.75.77c-1.14,0-2.26.31-3.41.22C476,305.05,475.46,305.14,475.1,304.66Z" transform="translate(-304.92 -196.3)"/><path class="cls-1" d="M447.73,305.69c-.1.22-.33.16-.5.24s-.19.17-.31.15a23.85,23.85,0,0,1-5.38-1.55c-.11,0-.14-.19-.18-.3l-5.24-1.64a7,7,0,0,1-1-.32c-.49-.24-.46-.7-.33-1.13a.67.67,0,0,1,.88-.39,4.65,4.65,0,0,1,.85.39,26.06,26.06,0,0,0,3.87,1.69C442.76,304,445.26,304.79,447.73,305.69Z" transform="translate(-304.92 -196.3)"/><path class="cls-1" d="M478.46,319.38a.17.17,0,0,1,0-.19c.37-.39.81-.2,1.21-.11a183.26,183.26,0,0,0,22.59,3.3,7,7,0,0,1,2.64.45.28.28,0,0,1,0,.38,72.62,72.62,0,0,1-7.51-.61c-2.69-.28-5.37-.66-8.05-1.06q-5.36-.82-10.63-2C478.63,319.56,478.55,319.45,478.46,319.38Z" transform="translate(-304.92 -196.3)"/><path class="cls-1" d="M504.92,323.21l0-.25a10.82,10.82,0,0,1,4.05-.09,74.78,74.78,0,0,0,12.34.2,4,4,0,0,1,2.75.29c0,.35.18.74-.29.94,0-.27.25-.67-.33-.66-.35,0-.71,0-1.06,0a58.68,58.68,0,0,1-8.59.18c-2.82-.07-5.64-.3-8.46-.47A1.72,1.72,0,0,1,504.92,323.21Z" transform="translate(-304.92 -196.3)"/><path class="cls-1" d="M437.31,372.76a44.08,44.08,0,0,1,5.39,0l3.88.11a25,25,0,0,1,3.77,1.7,15.68,15.68,0,0,1-3.73,2.08c-.48.25-1,.45-1.48.67l-3.62-2.06a4.29,4.29,0,0,0-1.13-.57C439.44,373.9,438.32,373.42,437.31,372.76Z" transform="translate(-304.92 -196.3)"/><path class="cls-1" d="M430.83,373.06l1.19-.23c1.2.11,1.86,1.17,2.76,1.53-.48-.51-1.42-.66-1.84-1.48,1.09-.2,2.21,0,3.29-.27,1,.44,1.95,1.08,2.93,1.61a3.62,3.62,0,0,0,1.13.56c1.3,1,2.79,1.69,4.13,2.63a10.55,10.55,0,0,1-3,.62c-.48,0-.16.28-.16.46a5.13,5.13,0,0,0-2.82-.43c-1.44,0-2.88,0-4.33,0-.61.17-.91-.34-1.27-.63-1.35-1.07-2.67-2.15-4.05-3.17-.31-.23-.81-.39-.72-.95a10.54,10.54,0,0,1,1.84-.3.47.47,0,0,1,.51,0h0c2.09,1.39,4.18,2.77,6.46,4.32-1.83-1.29-3.52-2.35-5.15-3.48C431.4,373.65,430.93,373.54,430.83,373.06Z" transform="translate(-304.92 -196.3)"/><path class="cls-1" d="M433.28,378.18c-6,.05-11.9,1.14-17.82,1.92a14.31,14.31,0,0,0-2.74.7,39.66,39.66,0,0,0-6.28,2.71,25.35,25.35,0,0,1-6.95,2.55c-5.14,1.16-10.27,2.36-15.49,3.11a40.42,40.42,0,0,1-10.25.05,56.19,56.19,0,0,1-9.6-1.88,21.49,21.49,0,0,0-3.84-.61,11.66,11.66,0,0,1-1.17-.14c-.22,0-.5-.07-.55-.35s.22-.48.47-.59a8,8,0,0,1,4.4-.52,26.92,26.92,0,0,0,4.83.24c2.4-.07,4.8,0,7.2,0,6.26,0,12.53-.06,18.63-1.74a67.13,67.13,0,0,0,7.66-2.74c2.37-1,4.73-1.95,7.09-2.93.19.17.24,0,.3-.13a67.66,67.66,0,0,1,16.88-4.19c.43-.05.86-.14,1.28-.22,1.06.26,1.71,1.12,2.56,1.69,1,.67,1.86,1.53,2.84,2.23C433,377.57,433.36,377.74,433.28,378.18Z" transform="translate(-304.92 -196.3)"/><path class="cls-1" d="M349.71,385.55l.93.39A47.49,47.49,0,0,0,356,388a8,8,0,0,0,3.5.32,4.09,4.09,0,0,1,3.4,1,4,4,0,0,0,3.06,1,13.85,13.85,0,0,1,5.23.73c.26.09.52.18.77.29a.36.36,0,0,1,.24.36c0,.2-.17.25-.32.27-.55.08-1.09.16-1.64.2a5.07,5.07,0,0,0-1.5.31,2.39,2.39,0,0,0-1.65,1.84,5.21,5.21,0,0,1-1.43,2.67c-.78.8-1.25.76-1.87-.15-.2-.3-.39-.6-.56-.91a3.58,3.58,0,0,0-2.8-2.09,4.28,4.28,0,0,1-1.62-.68l-7-4a7.61,7.61,0,0,1-2.54-2.25,3.64,3.64,0,0,1-.37-.59C348.72,385.72,349,385.44,349.71,385.55Z" transform="translate(-304.92 -196.3)"/><path class="cls-1" d="M412.21,350.93a21.81,21.81,0,0,1,1.05,2.31c-.67.35-1.24-.38-2-.15,1.6,1.27,3.57,1.66,5,2.89a10.14,10.14,0,0,0,1.8,2.69.57.57,0,0,1,.2.72c-1.16.18-1.94-.67-2.87-1.09a6,6,0,0,0-1.66-.72c3.66,2,7.61,3.43,11.28,5.41a57.15,57.15,0,0,0,7.42,3.62,6.9,6.9,0,0,0,2.66.49c2.66.9,5.19,2.13,7.75,3.25.25.1.78.22.35.72a3.32,3.32,0,0,1-2.18,0,52.52,52.52,0,0,0-7.39-1,7.59,7.59,0,0,1-3-1.36c-4.3-2.28-8.51-4.75-13.09-6.47a5.77,5.77,0,0,0-2.31-2.6,26.15,26.15,0,0,0-6.17-2.9c-1-.33-1-.33-.84-1.36a9.61,9.61,0,0,0-1.24-5.89,3,3,0,0,1-.5-1.31,25.1,25.1,0,0,0-2.65-9.35c-.05-.11-.08-.22-.13-.34.35-.18.6.08.86.2a52.87,52.87,0,0,1,7.12,3.91,7,7,0,0,1,1.53,1.29c.27.33.6.66.29,1.14-.78.22-1.31-.36-1.93-.62a6,6,0,0,0-2.67-.79,2.78,2.78,0,0,0,1.47,1c.61.3,1.38.34,1.79,1-.36.8-1.44.5-1.87,1.2-.42.22-.8-.3-1.27-.05.52.61,1.64.47,1.8,1.47l.75,1.6c-.63.45-1.16-.24-1.82-.11.39.36.91.33,1.34.48S412.08,350.33,412.21,350.93Z" transform="translate(-304.92 -196.3)"/><path class="cls-1" d="M417.52,368.05l-2.33-2.81c.4-.87,1.5-1,1.91-1.9l0,0c.3-.05.24-.42.48-.53a2.76,2.76,0,0,1,2.26.3c3.92,1.75,7.71,3.74,11.47,5.8.23.13.67.19.4.66a12,12,0,0,1-2.54-.05,2.27,2.27,0,0,1-1.26-.61c-.31-.31-.54-.2-.8,0a3.38,3.38,0,0,1-1.34.11,4.37,4.37,0,0,1-1.94-1c.07.21.35.4,0,.61a6.58,6.58,0,0,1-1.88-.09c-.9-.18-1.54-.89-2.39-1.16.14.25.64.39.24.8A2.93,2.93,0,0,1,417.52,368.05Z" transform="translate(-304.92 -196.3)"/><path class="cls-1" d="M452,369a14.37,14.37,0,0,1-5.69,1.94l-.8.15c-.72.2-1.28-.27-1.89-.5-2-.76-3.9-1.67-5.88-2.45-.37-.15-.89-.22-.9-.8a.58.58,0,0,1,.51-.4,29.74,29.74,0,0,0,4.55-1.35c1.87.43,3.66,1.12,5.48,1.71,1.35.43,2.7.82,4,1.26C451.68,368.59,452,368.55,452,369Z" transform="translate(-304.92 -196.3)"/><path class="cls-1" d="M416.78,368a5,5,0,0,0-2.33,1c-1.64,1.26-3.31,2.5-5,3.75-.69-1-.9-2.23-1.63-3.2h.07c2.08-1.48,4.34-2.65,6.51-4,.09-.05.23,0,.34,0A26.65,26.65,0,0,1,416.78,368Z" transform="translate(-304.92 -196.3)"/><path class="cls-1" d="M409.54,372.57a63,63,0,0,1-6.33,4.31,10,10,0,0,1-5.38,1.51c-.43,0-.86,0-1.3.06a5.41,5.41,0,0,0-4.1,2.26,1.69,1.69,0,0,1-1.36.73c-4.31.35-8.6.93-12.88,1.53a2.9,2.9,0,0,1-1.72-.07c11.08-3.19,21.77-7.26,31.53-13.48A15.58,15.58,0,0,1,409.54,372.57Z" transform="translate(-304.92 -196.3)"/><path class="cls-1" d="M468.76,383.45a.25.25,0,0,1,.34.13,1.54,1.54,0,0,0,1.19.64c1.71.78,3.44,1.53,5.14,2.34a41.2,41.2,0,0,1,7.92,4.87,13.88,13.88,0,0,0,9.68,3c6.1-.27,12.16-.84,18.2-1.67.47-.06.94-.1,1.41-.18.31-.05.55,0,.62.33s-.14.46-.45.53l-4.47,1c-3.48.84-6.94,1.72-10.42,2.54a16.7,16.7,0,0,1-11-1.26,103.8,103.8,0,0,1-9.79-5.16,37.69,37.69,0,0,0-11.93-4.27,57.9,57.9,0,0,0-6.41-.94c-.34,0-.78-.31-1,.2a.58.58,0,0,1-.55-.11c-2-1.4-4-2.66-6.05-4-.31-.2-.77-.36-.25-.82,2.94.08,5.84.55,8.76.9s5.83,1.16,8.74,1.78A1.38,1.38,0,0,1,468.76,383.45Z" transform="translate(-304.92 -196.3)"/><path class="cls-2" d="M356.57,347.06a4.05,4.05,0,0,1-1.35-1.58c-.17-.34-.33-.72-.89-.73,0,1.18.94,1.73,1.56,2.48a3.45,3.45,0,0,1-3.23.56c-.75-.37-.86-1.17-1.19-1.81-.18-.33-.19-.76-.79-1,0,1.27.93,2,1.41,3a2.7,2.7,0,0,1-2.31.55,2.6,2.6,0,0,0-.87-.91c-.12.44.31.56.33.86l-1.65,0a3.79,3.79,0,0,1-1.49-.31,1.55,1.55,0,0,1-1-1.9,4,4,0,0,1,1.68-2.48,12.25,12.25,0,0,1,5.44-2.14c.46-.07.93-.13,1.4-.17a4.43,4.43,0,0,1,3.57,1.21,2.36,2.36,0,0,1,.07,3.64C357,346.55,356.62,346.65,356.57,347.06Z" transform="translate(-304.92 -196.3)"/><path class="cls-2" d="M364.61,346.35l-.23.23a3.14,3.14,0,0,0-1.8-1,4.13,4.13,0,0,1-1.71-.77,1.37,1.37,0,0,1-.26-2.15,3.67,3.67,0,0,1,1.6-1.17,16.53,16.53,0,0,1,8-.73,6.28,6.28,0,0,1,3,1.33c1.27,1,1.28,2,.05,3a3.19,3.19,0,0,0-.33.31c-1,.14-1.16-1.05-1.9-1.15.26.41,1.15.45.86,1.31a5.36,5.36,0,0,1-2.73.55,5.68,5.68,0,0,1-1.29-1.75c-.09-.17-.25-.36-.46-.27s-.17.38-.1.6c.15.5.63.77.83,1.24-.67.47-1.44.2-2.16.28C365.52,346.24,365,346.06,364.61,346.35Z" transform="translate(-304.92 -196.3)"/><path class="cls-2" d="M355.33,334.72a6.71,6.71,0,0,1,4.48,1.53,3.75,3.75,0,0,1,1.09,1.37c.62,1.44.22,2.37-1.28,2.79a9.62,9.62,0,0,1-5.91.06,4.47,4.47,0,0,1-2.65-2,1.87,1.87,0,0,1,.86-2.93A7.54,7.54,0,0,1,355.33,334.72Z" transform="translate(-304.92 -196.3)"/><path class="cls-2" d="M364.55,336.38a5.36,5.36,0,0,1-4.83-2.79,1.75,1.75,0,0,1,1-2.76,7.36,7.36,0,0,1,8.05,1.05,3.81,3.81,0,0,1,.66.67,1.59,1.59,0,0,1-.37,2.52A8.09,8.09,0,0,1,364.55,336.38Z" transform="translate(-304.92 -196.3)"/><path class="cls-2" d="M371.89,335.75a17,17,0,0,1,4.32.43,3.9,3.9,0,0,1,2.1,1.23,1.79,1.79,0,0,1-1.25,3.08,23.56,23.56,0,0,1-8.71-1,4.79,4.79,0,0,1-1.39-.61,1.24,1.24,0,0,1-.07-2.21,4.35,4.35,0,0,1,1.84-.73,13.1,13.1,0,0,1,1.4-.2C370.72,335.73,371.31,335.75,371.89,335.75Z" transform="translate(-304.92 -196.3)"/><path class="cls-2" d="M388.74,348.22a20.85,20.85,0,0,1-2.85-.14c-.08,0-.18.11-.27.16-1.37-.48-2.37-1.55-3.6-2.27a6.12,6.12,0,0,0-1.84-.88c-.16,0,0,.25,0,.1s0-.07.1,0a6.7,6.7,0,0,1,3.51,2.39,14.14,14.14,0,0,1-3.51-1,3.91,3.91,0,0,1-2-1.73,1.38,1.38,0,0,1,.43-2,3.18,3.18,0,0,1,1.52-.61,6.7,6.7,0,0,1,2,0,20.75,20.75,0,0,1,7.4,2.59,4.07,4.07,0,0,1,1.16,1,1.14,1.14,0,0,1-.25,1.82c-.21.16-.54.17-.55.53-.45.21-.73-.14-1.05-.33a27.23,27.23,0,0,0-3.47-1.91,20.83,20.83,0,0,1,2.69,1.51C388.39,347.66,388.79,347.75,388.74,348.22Z" transform="translate(-304.92 -196.3)"/><path class="cls-2" d="M388.46,338.38c2.55-.19,4.4,1.24,6,3.19a1.4,1.4,0,0,1,.33,1.62,1.59,1.59,0,0,1-1.58.85c-2.84-.17-5.52-.8-7.67-2.83-1.07-1-.81-2.13.62-2.56A6.26,6.26,0,0,1,388.46,338.38Z" transform="translate(-304.92 -196.3)"/><path class="cls-2" d="M399.15,352.92a5.23,5.23,0,0,1-3.92-1.13.37.37,0,0,1-.29,0,5.13,5.13,0,0,1-.69-.54l-.08-.13c0-.45-.47-.59-.7-.88a3,3,0,0,1-.79-2.59,1.69,1.69,0,0,1,1.77-1.54,3.8,3.8,0,0,1,1.73.24,8.69,8.69,0,0,1,4.39,3.89c.61,1.13.51,1.51-.43,2.47-.49.29-.79-.16-1.15-.32s-.87-.53-1.32-.77a12.17,12.17,0,0,1-1.17-.67C397.25,351.66,398.61,351.74,399.15,352.92Z" transform="translate(-304.92 -196.3)"/><path class="cls-2" d="M384.15,337.59a8.62,8.62,0,0,1-3-.5,4.93,4.93,0,0,1-2.17-1.57,1.2,1.2,0,0,1,.22-1.85,2.47,2.47,0,0,1,.94-.48,8.47,8.47,0,0,1,6.08.48,4.75,4.75,0,0,1,1.86,1.91.81.81,0,0,1-.11,1,2.2,2.2,0,0,1-1.25.82A9.45,9.45,0,0,1,384.15,337.59Z" transform="translate(-304.92 -196.3)"/><path class="cls-2" d="M394.1,335.87a8,8,0,0,1,4.54,1.75,10.53,10.53,0,0,1,2,1.85,1.44,1.44,0,0,1-.85,2.44,3,3,0,0,1-1.74-.07,11.88,11.88,0,0,1-5.17-3.18,1.56,1.56,0,0,1,0-2.47A1.67,1.67,0,0,1,394.1,335.87Z" transform="translate(-304.92 -196.3)"/><path class="cls-1" d="M441.23,387.09c-.36-.36-.82-.23-1.24-.22a127.82,127.82,0,0,0-15.5,1.48c-3.42.53-6.87.86-10.3,1.36-4.78.69-9.59,1.3-14.31,2.39-1.71.39-3.37,1.06-5.06,1.58-2.29.71-4.7,1-7,1.68a25,25,0,0,0-6.56,2.58,4,4,0,0,1-1,.44c-3.38,1-6.07,3.23-8.91,5.16a4.71,4.71,0,0,1-1.47.69c-1.6.43-3.24.67-4.83,1.18a2.69,2.69,0,0,1-2.88-.57c-1.66-1.9-3.93-2.83-6-4a5.24,5.24,0,0,1-2-1.67,4.09,4.09,0,0,0-.68-.7,62.73,62.73,0,0,1-5.63-5.9,21.08,21.08,0,0,1-3.17-4.95,15.81,15.81,0,0,1-.83-3.55c-.13-.54.27-.82.73-.87a7.14,7.14,0,0,1,1.53,0c.78.06,1.55.17,2.59.28a20.88,20.88,0,0,1-1.46-3.33c-.33-.89-.68-1.77-.95-2.67a4.38,4.38,0,0,1,.42-3.53,1.65,1.65,0,0,1,1.49-1,1.49,1.49,0,0,1,1.38,1.11,9,9,0,0,0,1.91,3c0-.48.05-.84.09-1.2a3.58,3.58,0,0,1,1-2.34,1.29,1.29,0,0,1,.92-.33,1.59,1.59,0,0,1,.94.3,2.36,2.36,0,0,1,.7,1.12c.44.86,1.62,1.08,2.57,1.29,3.47.77,3,1.24,6,1.71a21.38,21.38,0,0,0,6.5.21,17.71,17.71,0,0,0,6.9-2.24,25.07,25.07,0,0,0,2.84-2c1.83-1.48,2.13-2.08,3.24-2.85s2.06-.93,4.67-1.62c6.43-1.68,7.67-2.74,11.86-3,.93-.05,1.7,0,2.2,0s.5.27.69.5a26.18,26.18,0,0,1,2.18,3.27c.23.39.69.79.33,1.35a126.32,126.32,0,0,1-22.05,10.45,92.38,92.38,0,0,1-15.28,3.56,81.33,81.33,0,0,1-16.56,1.28,31,31,0,0,0-3.18-.25c-1,.06-1.16.22-.75,1.11a11.93,11.93,0,0,0,6.54,6.47c1,.38,2,.83,2.94,1.24a9,9,0,0,1,4,3.35c.26.4.51.8.8,1.17,1,1.21,1.66,1.08,3.31-.16a7.48,7.48,0,0,0,2-2.3,5.7,5.7,0,0,1,4.2-2.78A17.54,17.54,0,0,1,376,394c1.73.14,3.41-.51,5.13-.7a47,47,0,0,0,7.67-1.92c4.24-1.21,8.51-2.31,12.7-3.7,3.67-1.21,7.54-1.64,11.31-2.43,4.63-1,9.23-2.06,13.89-2.84a42.28,42.28,0,0,1,7.28-.56c.53,0,1.05.06,1.17-.65a.42.42,0,0,1,.44,0c1.52,1.07,3.21.67,4.86.59a7.57,7.57,0,0,1,2.89.11c-.11,0-.12-.34-.18-.2s-.06.08-.09.08c-.36,0-.47-.2-.36-.53,1.23,0,2.38.49,3.62.52a19.51,19.51,0,0,0,2.65.06.58.58,0,0,1,.36.08c2.23,1.3,4.43,2.65,6.53,4.15a.57.57,0,0,1,.29.6H451.6c.14.4.55.5.86.71,1.56,1.09,3.15,2.16,4.72,3.24.22.15.48.26.6.53l-.07.09c-1.4-.62-2.44-1.79-3.86-2.36a7.36,7.36,0,0,1-2.21-1.49,2.89,2.89,0,0,0-1.14-.72,2.16,2.16,0,0,0-.79-.09C448.91,386.54,445.65,386.76,441.23,387.09Z" transform="translate(-304.92 -196.3)"/><path class="cls-1" d="M477.57,259.94a8.79,8.79,0,0,1-.46,2.94A51.41,51.41,0,0,0,475,272a9.94,9.94,0,0,0,.36,4.2,36.34,36.34,0,0,1,1,4.25c.05.34.2.75-.22.93s-.75-.11-1-.45a6.33,6.33,0,0,1-.79-1.71c-.79-2.43-1.56-4.86-2.35-7.29a22.24,22.24,0,0,0-1-2.76,16.08,16.08,0,0,1-1.3-5.23,8.55,8.55,0,0,1,.3-3.26q.93-3.42,1.87-6.82a12.11,12.11,0,0,0-.16-6.75,1.87,1.87,0,0,1-.14-.44c0-.39-.57-.89,0-1.13s.59.43.74.75a96.4,96.4,0,0,1,4.47,9.75A13.86,13.86,0,0,1,477.57,259.94Z" transform="translate(-304.92 -196.3)"/><path class="cls-1" d="M471.27,281.47c-2.51-1.36-5.23-2.17-7.7-3.52a20,20,0,0,1-1.71-1,7.63,7.63,0,0,1-3.67-6.61c0-.63,0-1.26,0-1.89s0-1.12-.51-1.48c-.27-.19-.17-.41-.06-.62A20.45,20.45,0,0,1,461.3,261c.11-.11.24-.21.36-.31,1.18-.85,1.94-.56,2.08.88s.23,3.13.47,4.69a24.82,24.82,0,0,0,4,10.47c.83,1.23,1.64,2.49,2.45,3.74C470.89,280.81,471.08,281.15,471.27,281.47Z" transform="translate(-304.92 -196.3)"/><path class="cls-1" d="M434.84,274.07a21,21,0,0,1,.76,5.61c.14,3.25.1,6.5.5,9.88a17.13,17.13,0,0,1-3.08-2.5,3,3,0,0,1-1-2.7,43.07,43.07,0,0,1,.61-6.31,10,10,0,0,1,.83-2.45A3.37,3.37,0,0,1,434.84,274.07Z" transform="translate(-304.92 -196.3)"/><path class="cls-1" d="M468,303.65c1.06-1.16,2.13-2.3,3.17-3.47a61.37,61.37,0,0,0,8-11.1,39.06,39.06,0,0,0,4.57-22.33,49.66,49.66,0,0,0-4.36-17.05,21.16,21.16,0,0,0-2.68-4.44c-1.58-2-3-4.15-4.35-6.31-.24-.39-.83-.89-.29-1.33s.87.17,1.23.44a76.17,76.17,0,0,1,7.19,6.12,60.56,60.56,0,0,1,10.36,12.21,32.32,32.32,0,0,1,4.64,11.78,26.79,26.79,0,0,1-1.82,15.14A54,54,0,0,1,479.37,303l-1,.87a1.66,1.66,0,0,1-1.34.32c-2.43,0-4.87,0-7.31,0C469.14,304.19,468.48,304.26,468,303.65Z" transform="translate(-304.92 -196.3)"/><path class="cls-1" d="M462.1,308.8c1.54-1.33,3.16-2.57,4.61-4,.23-.22.43-.46.64-.68.81-.55,1.69-.13,2.51-.09,2.22.09,4.45,0,6.68.08a2.22,2.22,0,0,1,.81.08c.59.68-.14.9-.47,1.15a39.5,39.5,0,0,1-5.18,3.4,19.7,19.7,0,0,1-3.32,1.72,33.73,33.73,0,0,1-5.8-1.19A.67.67,0,0,1,462.1,308.8Z" transform="translate(-304.92 -196.3)"/><path class="cls-1" d="M457.29,312.06a22.06,22.06,0,0,1,3.15,1.17,16.21,16.21,0,0,1-3.77.91,2,2,0,0,1-.35,0c-.3,0-.66,0-.79-.36s.15-.52.35-.69C456.34,312.75,456.82,312.41,457.29,312.06Z" transform="translate(-304.92 -196.3)"/><path class="cls-1" d="M457.94,311.73c1.14-.93,2.47-1.58,3.53-2.62,2,.45,4,.79,6,1.4a33.45,33.45,0,0,1-5,2.1,3.9,3.9,0,0,0-1.08.44A20.38,20.38,0,0,1,457.94,311.73Z" transform="translate(-304.92 -196.3)"/><path class="cls-1" d="M514.77,336.49a4.7,4.7,0,0,1-.94,2.6,28.3,28.3,0,0,0-1.6,4.12,44.7,44.7,0,0,0-1.8,7.73,16,16,0,0,0,.17,6.43,2.47,2.47,0,0,1,.16,1.14c-.33-.12-.39.06-.4.34,0,.5.12,1.12-.51,1.32s-1-.39-1.31-.82a37,37,0,0,0-9.82-8.93,3.49,3.49,0,0,1-1.13-1.46c-2.37-4.66-4.69-9.35-7.48-13.8-1-1.56-2-3.07-3.19-4.86.5.33.79.49,1.05.69a44.91,44.91,0,0,1,10.78,11.47,24.4,24.4,0,0,0,3,3.91c2.4,2.56,4.69,5.21,7,7.85.43.5.77,1.09,1.23,1.74a17.91,17.91,0,0,1,.32-6.43,64.18,64.18,0,0,1,1.82-7.16c.63-1.74,1.44-3.38,2.13-5.08A1.71,1.71,0,0,1,514.77,336.49Z" transform="translate(-304.92 -196.3)"/><path class="cls-1" d="M441.84,300.1c-.23,0-.6-.08-.42.39s.26.71.38,1.06c-.49.32-.9,0-1.32-.18-1-.36-2-1-3-1.4-.32-.13-.73-.31-.9.17s.23.64.57.73c1.25.35,2.46.79,3.7,1.15a4.34,4.34,0,0,1,1.95.76c.05.54.47,1,.23,1.61-1,0-1.59-.73-2.38-1a6,6,0,0,0,2.82,2,1,1,0,0,1,.77.66c-.1.5.28.8.5,1.15a30.65,30.65,0,0,0,10.57,9.93,86.53,86.53,0,0,0,13.1,5.91c4.23,1.6,8.54,3,12.7,4.75a4.48,4.48,0,0,1,1.69,1.22A71.09,71.09,0,0,1,491,341c1.26,2.27,2.45,4.57,3.73,7a1.59,1.59,0,0,1-1-.3,221.37,221.37,0,0,0-36.54-14.26c-4.11-1.19-8.2-2.47-12.3-3.71-.46-.13-.94-.17-.73-.89a15.87,15.87,0,0,0-.39-8.95c-.65-2.23-1.51-4.39-2.26-6.58a27,27,0,0,1-1.16-3.84,1.61,1.61,0,0,0-1.57-1.48c-1.49-.06-1.88-1-2.24-2.2a62.45,62.45,0,0,1-2.48-12.83c0-.43,0-.86-.06-1.29.42-.14.58.21.8.38A20.57,20.57,0,0,0,439,294.7a1.44,1.44,0,0,1,.92,1.1c.15.73.37,1.45.55,2.17-.72.65-1.45-.31-2.27,0a7.34,7.34,0,0,0,2.64,1.46C441.21,299.61,441.75,299.52,441.84,300.1Z" transform="translate(-304.92 -196.3)"/><path class="cls-1" d="M456.05,356.8a12,12,0,0,0-3.8-2.54,27.76,27.76,0,0,0-8.85-2.4,13.39,13.39,0,0,1-6.17-2.2,37.15,37.15,0,0,1-7-5.62c-3.72-4.1-8.42-6.38-13.65-7.75a49.1,49.1,0,0,1-5.94-2,66.88,66.88,0,0,0-11-3c-4.54-1-9.14-1.64-13.72-2.38-3.77-.61-7.59-.92-11.34-1.62-2.83-.52-5.62-1.22-8.38-2a9.76,9.76,0,0,1-5.16-3.35,6.82,6.82,0,0,1-1.38-2.92l3.43.54c4.81.81,9.62,1.67,14.44,2.41,4.51.7,9.05,1.2,13.61,1.55,8.52.66,17,1.42,25.45,2.88a74.84,74.84,0,0,1,21.68,7.47c5.6,2.89,11,6.18,16.4,9.36a126.7,126.7,0,0,0,21.74,10.29c5.77,2.06,11.68,3.76,17.63,5.26,2.4.61,4.84,1.06,7.27,1.57a6.42,6.42,0,0,1,2.88,1.28,8.39,8.39,0,0,0,2.51,1.28c.33.12.71.11.95.51-.41.37-.87.18-1.3.12-2.61-.37-5.23-.68-7.86-.83-1.26-.08-2.52-.07-3.78-.06a56.33,56.33,0,0,1-6.49-.35,19.1,19.1,0,0,0-9.08.89,19.91,19.91,0,0,1-6,.95c-1.5.33-2.91-.31-4.35-.49-1.27-.15-2.53-.49-3.79-.7a21.08,21.08,0,0,1-7.28-4.14c-.32-.28-1.08-.55-.39-1.22,2.89.28,5.76.68,8.65.92,1.38.11,2.75.19,4.12.19a7.55,7.55,0,0,1,2,.32,23.53,23.53,0,0,0-4.73-.44c-3.39-.37-6.81-.55-10.17-1.19C456.7,357.3,456.27,357.26,456.05,356.8Z" transform="translate(-304.92 -196.3)"/><path class="cls-1" d="M422.93,298.81a22.33,22.33,0,0,1,7.82,6.7,46.39,46.39,0,0,0,3.1,4,23.25,23.25,0,0,1,2.87,3.89c.17.31.35.68.69.77.7.18.85.71,1.07,1.27a54.12,54.12,0,0,1,2,5.79,14.23,14.23,0,0,1,.38,6.19,1.62,1.62,0,0,1-.4,1c-8.24-2.66-16.31-5.76-23.81-10.36C421.83,312.68,422.92,306,422.93,298.81Z" transform="translate(-304.92 -196.3)"/><path class="cls-1" d="M392.84,306.4c4.18,0,7.07,1.24,9.18,4.08.31.41.64.81.94,1.22a25.72,25.72,0,0,0,11.92,9.11c.84.32,1.68.67,2.51,1,.29.12.59.3.5.69s-.45.38-.77.4a19.5,19.5,0,0,1-4.1-.38c-6.17-1-12.34-2-18.52-2.91L384,318.18a14.92,14.92,0,0,1-3.09-.72,2.39,2.39,0,0,1-1.52-3.57,7,7,0,0,1,1.54-2.22A17.87,17.87,0,0,1,392.84,306.4Z" transform="translate(-304.92 -196.3)"/><path class="cls-1" d="M346.81,333.18a4.87,4.87,0,0,1-.68,0c-.34-.06-.73-.09-.9-.46s.14-.66.39-.89a4.16,4.16,0,0,0,1.32-2.32,2.67,2.67,0,0,1,1.23-1.66,17.39,17.39,0,0,1,5-2.32,4,4,0,0,1,2.66.15c.87.34,1,.9.23,1.46A8.13,8.13,0,0,1,353,328.6a3.49,3.49,0,0,0-2.36,1.95,4.66,4.66,0,0,1-3.33,2.57A2.9,2.9,0,0,1,346.81,333.18Z" transform="translate(-304.92 -196.3)"/><path class="cls-1" d="M363.36,354.86h0v0Z" transform="translate(-304.92 -196.3)"/><path class="cls-1" d="M522.86,269.52c-.44-.16-.89-.31-1.34-.43a53,53,0,0,1-12.42-5c-4.71-2.65-9.17-5.67-13.65-8.67a198.05,198.05,0,0,1-19.94-15.88,57.46,57.46,0,0,1-9-10.11c-1.55-2.18-2.94-4.47-4.3-6.77A38.21,38.21,0,0,0,452,210.75c-5.17-3.76-10.81-5.45-17.24-3.79a8,8,0,0,0-5.78,4.71c-1,2.19-1.8,4.44-2.73,6.65a15.84,15.84,0,0,1-1.35,2.74,3.38,3.38,0,0,1-1.12-1.07c-2.13-2.68-4.3-5.34-6.39-8.05a50.09,50.09,0,0,0-13.58-12.29,18.32,18.32,0,0,0-9.16-2.75,13.07,13.07,0,0,0-7.9,1.91A23.39,23.39,0,0,0,378,209.34a33,33,0,0,0-1.74,19.11,41.34,41.34,0,0,1,.88,7,9,9,0,0,1-1.56,5.34,32.79,32.79,0,0,1-8.13,8.48A214.3,214.3,0,0,0,348.83,264a61.74,61.74,0,0,0-7.78,8.06c-1.35,1.74-2.49,3.64-3.93,5.32a4.48,4.48,0,0,0-.77,1.32,1,1,0,0,1-1.49.77c.32.34.72,0,.95.38-.34,1-.73,2-1,3.1a47.88,47.88,0,0,1-1.85,5.45,159.08,159.08,0,0,1-7.6,15.45,49.07,49.07,0,0,1-10.77,13.63,44.71,44.71,0,0,0-8.74,9.87c-.91,1.49-1.4,1.44-.14,3.21a1.32,1.32,0,0,1,.12.2c1.51,2.94,3,5.89,4.56,8.8,1.2,2.25,2.56,4.43,3.72,6.7a7.25,7.25,0,0,0,3.05,3.33,47.43,47.43,0,0,1,7.63,5.33,13.25,13.25,0,0,1,4.28,5.78,2.25,2.25,0,0,0,.54.76c1.7,1.79,4.23,1.19,5.65-.59a8.2,8.2,0,0,1,3.16-2.39c.9-.41.88-.38,1.38.47a19,19,0,0,0,6,6.44,5,5,0,0,0,1.48.72c.94.24,1.54-.3,1.43-1.27,0-.23-.22-.43-.06-.7.52.24,1.05.49,1.58.71a4.41,4.41,0,0,0,1.59.42c1.33.05,1.91-.7,1.45-1.93a26.18,26.18,0,0,1-1.06-3.13,7.53,7.53,0,0,1,0-3.5c.27-1.15.28-1.18,1.45-1.35,1.77-.25,3.55-.57,5.34-.69,1.47-.11,3-.64,4.43.15,0-.18-.48-.42.1-.53a4.71,4.71,0,0,1,3.62.62c.62.41,1.22.86,1.86,1.24a4.28,4.28,0,0,0,3.6.61,15.06,15.06,0,0,1,3.91-.32c.75,0,1.5.14,2.24.07s1.21.51,2,.29a6.46,6.46,0,0,1,2.23.05c1.13.08,2.27.19,3.4.29a2.3,2.3,0,0,0-.87-.75,18.29,18.29,0,0,0,4,1.81,25,25,0,0,0,5.2,1.27c.49-.49-.09-.68-.3-.91s-.51-.52-.76-.77l.87.81c.78.73,1.32,1.78,2.45,2.13s1.9,1,2.91,1.34c.19.07.49.12.35.46a1.2,1.2,0,0,0-.28.35,3.91,3.91,0,0,0-.27,1.07c1,1.68,2.12,3.3,3.28,4.89a.52.52,0,0,0,.32-.07c1.91-1.22,3.9-2.3,5.8-3.54a.62.62,0,0,1,.76-.08c.83.69,1.37,1.64,2.14,2.39a7.21,7.21,0,0,0,1.16,1.31c.18.13.4.31.62.11s.09-.44,0-.65a5.45,5.45,0,0,0-.74-1c-.76-.92-1.51-1.84-2.25-2.78.11-.92,1.17-1,1.53-1.69a.83.83,0,0,1,0-.15c.17-1.73-.3-2.14-2-1.68-.74.2-1.46.48-2.28.76,0-1.18-.8-1.66-1.72-2-.64-.26-1.26-.58-1.89-.87s-1.5-.42-2.26-.57c-2.26-.42-4.44-1-6-2.87a1.12,1.12,0,0,0-.59-.37c-.68-.11-.4.37-.35.78-2.79-1.67-6-2.32-8.51-4.34a.43.43,0,0,0-.36.33c.17.38.69.46.85,1-2.3-.69-4.61-1.14-6.79-2a15.36,15.36,0,0,0-5.85-1.06,1.29,1.29,0,0,0,.32.59,10.76,10.76,0,0,0-1.82-1.19,5.31,5.31,0,0,1-4.79-1.27c-.77-.77-1.69-1.41-2.48-2.16a12.27,12.27,0,0,1-1.3-1.67c-.17-.22-.41-.41-.71-.27s-.32.5-.23.81a4.83,4.83,0,0,0,.81,1.29,28.37,28.37,0,0,0,4,3.38c-1.07,0-2.13-.53-3.27-.51a2.87,2.87,0,0,1-2.08-.92c-.62-.58-1.05-1.37-1.87-1.73-.19,0-.33.11-.27.34l2.17,2.44a54.13,54.13,0,0,0-6.32.62,1.17,1.17,0,0,1-.95-.35,23.1,23.1,0,0,1-2.71-2.23c-1.63-2.4-2.09-2.49-2.25-2.42a.4.4,0,0,0-.21.21c-.1.21,0,.49.13.72a6,6,0,0,0,1.45,1.84c.8.83,1.78,1.44,2.62,2.22a21.23,21.23,0,0,0-2.35.47,1.23,1.23,0,0,1-1.3-.3,13.16,13.16,0,0,1-2-2.18,13,13,0,0,1-1.09-2.05c-.17-.35-.42-.8-.85-.62s-.32.74-.14,1.12a10.39,10.39,0,0,0,1.23,2c.6,1,1.57,1.6,2.22,2.55-.57.38-1.08.49-1.57.07a12.21,12.21,0,0,1-2.56-2.41,2.07,2.07,0,0,0-.46-.52c-.21-.14-.45-.41-.7-.13s0,.5.21.67a2.78,2.78,0,0,1,.27.21c.69,1.27,2.06,1.89,3,3l-2.85.57a20,20,0,0,0-8.24,3.34,3.11,3.11,0,0,1-1.75.63,3.07,3.07,0,0,0-1.73.66,1.69,1.69,0,0,1-1,.51,37,37,0,0,0-2.39-5.35,12,12,0,0,1-.58-1.55,2.3,2.3,0,0,1,0-1.73c1-1.88,1.66-3.92,3.16-5.5a11.93,11.93,0,0,0,2.07-2.72,2.74,2.74,0,0,0-.12-3.2c-.54-.69-.41-1,.39-1.49.51-.28,1.06-.51,1.58-.78a4.73,4.73,0,0,0,2.65-3,1.88,1.88,0,0,1,.6-1c1.45-1.19,2.57-2.78,4.38-3.54a2,2,0,0,0,.49-.32c.37-.35.29-.78-.2-.88a3.53,3.53,0,0,0-1.17,0,6.93,6.93,0,0,0-2.74,1,4.09,4.09,0,0,1-1.64.55,7.81,7.81,0,0,0-4.55,1.74c-.38.37-.73.43-1.1,0a6.13,6.13,0,0,0-2.27-1.45,26.59,26.59,0,0,0-13.5-2.71c-.44,0-.89,0-1.45,0a57.92,57.92,0,0,0,2.09-6,2.43,2.43,0,0,1,1.46-1.59,24,24,0,0,0,4.18-2.16,4,4,0,0,0,1.8-3.26,20.12,20.12,0,0,1,.25-2.58,6.13,6.13,0,0,1,2.37-4.2,7.41,7.41,0,0,0,2.31-2.32,12.35,12.35,0,0,1,1.21-1.59,13.1,13.1,0,0,0,1.67-2.56c1.36-2.67,2.44-5.46,3.59-8.21a9,9,0,0,0,.72-2.73,2.94,2.94,0,0,1,.42-.78,8.6,8.6,0,0,0,.54-2.45,2.12,2.12,0,0,1,.16-.83,15.64,15.64,0,0,0,1-3.21,1.12,1.12,0,0,1,.29-.74c1.06-1.56,2.23-3,3.22-4.65,3.57-5.83,7.81-11,13.6-14.84a120.16,120.16,0,0,0,12.7-10,98.7,98.7,0,0,0,8.55-8.81,4.91,4.91,0,0,0,1.11-2.19,12.6,12.6,0,0,0,.23-3.87c-.3-4.56-.17-9.13-.09-13.69a30,30,0,0,1,1.49-9,19,19,0,0,1,8.87-11,8.16,8.16,0,0,1,4.06-1.1,14.43,14.43,0,0,1,9,2.95,77.17,77.17,0,0,1,14,13.8c1.55,2,2.53,4.26,3.91,6.31.87,1.29.58,2.06-.27,3.11a130.46,130.46,0,0,1-18.64,18.88c-3.31,2.73-6.83,5.19-10.12,8a17.73,17.73,0,0,0-5.2,6.89c-1.58,3.86-3.27,7.67-4.89,11.51a14.8,14.8,0,0,1-3.65,5.16,26.2,26.2,0,0,1-4.93,3.43c-1.3.74-2.61,1.46-3.89,2.22a7.45,7.45,0,0,0-2.91,3c-.5,1-.11,1.63,1,1.7a7.51,7.51,0,0,0,1.77-.09,19.77,19.77,0,0,0,9.75-4.72,27,27,0,0,0,6.45-8.79c1-2.07,1.62-4.26,2.52-6.36a19.34,19.34,0,0,1,3.06-5.42,89.57,89.57,0,0,1,11.84-11.69c3.46-2.73,7-5.35,10.44-8.12A56,56,0,0,0,426,228.87c3.06-4.78,5.66-9.81,8.45-14.74a8.45,8.45,0,0,0,.88-2.18c.33-1.41.42-1.47,1.9-1.42a5.78,5.78,0,0,1,.94.07c6.11,1.29,11.3,4.06,14.94,9.3a104.22,104.22,0,0,0,13.64,15.8c2.53,2.42,5,4.85,7.78,7.05.85.7,1.66,1.45,2.47,2.2a62.21,62.21,0,0,0,8.37,6.72,34.34,34.34,0,0,1,2.87,2.08,108.93,108.93,0,0,0,9.94,7,106.45,106.45,0,0,0,12.24,7.1,28.71,28.71,0,0,0,10.55,2.78,7.49,7.49,0,0,0,1.77-.05c.29-.05.53-.2.55-.52A.54.54,0,0,0,522.86,269.52ZM391.34,355.83c-.37-.31-.75-.61-1.13-.91C390.6,355.22,391,355.52,391.34,355.83Zm-6.36.39a5.31,5.31,0,0,1-1.28-.65C384.08,355.79,384.53,356,385,356.22Zm-8.64-4.9a8.51,8.51,0,0,1-1.08-.69A3.24,3.24,0,0,1,376.34,351.32Zm-58.58-22.93c.67.49,1.33,1,2,1.5a3.39,3.39,0,0,0,2.42.75,11.88,11.88,0,0,0,2-.18,5.49,5.49,0,0,1,2.9.17c1.69.52,3.42.89,5.16,1.24a10,10,0,0,0,3.14-.05,13.21,13.21,0,0,1-5.61,1.24,43.58,43.58,0,0,0-4.56.52,3,3,0,0,0-2.56,3.87,3.43,3.43,0,0,0,.95,1.74,4.4,4.4,0,0,1,1.13,4.34,8.61,8.61,0,0,0,.55,5.08,14,14,0,0,0,2.5,3.61,6.4,6.4,0,0,1-3.36-1.44,13.89,13.89,0,0,1-2.26-2.4,5.25,5.25,0,0,1-1.08-2.7,10.9,10.9,0,0,0-.23-1.27,1.68,1.68,0,0,0-1.28-1.4,6.64,6.64,0,0,1-3.83-3c-1-1.39-1.91-2.78-2.84-4.2a11.14,11.14,0,0,1-1.4-3.1,2.88,2.88,0,0,1-.18-1.16,3.2,3.2,0,0,1,.36-1.26,4.66,4.66,0,0,1,2-2,3.89,3.89,0,0,1,2.34-.67A3.4,3.4,0,0,1,317.76,328.39Z" transform="translate(-304.92 -196.3)"/><path class="cls-1" d="M420.18,293.2c-6.64.61-13.13,1.66-19.19,4.76a3.13,3.13,0,0,1-.2-.3,82.26,82.26,0,0,1-5-11.57,10.85,10.85,0,0,1-.59-2.64c-.06-1,0-1.1,1-1.1a17.35,17.35,0,0,1,5.87,1.23,73.26,73.26,0,0,1,11.48,5.49A72.31,72.31,0,0,1,420.18,293.2Z" transform="translate(-304.92 -196.3)"/><path class="cls-1" d="M354.85,322.4a10.7,10.7,0,0,1,1.07-4.42,4.06,4.06,0,0,0,.32-3.29,3.36,3.36,0,0,1,1.23-3.45,2,2,0,0,1,2.11-.29,4,4,0,0,1,2.14,2.1,8.6,8.6,0,0,1,.62,3.09,1.67,1.67,0,0,1-1.21,1.82,4.08,4.08,0,0,0-2.81,2.76,9.51,9.51,0,0,1-1.82,2.87c-.25.29-.51.67-1,.57s-.52-.63-.61-1A5.73,5.73,0,0,1,354.85,322.4Z" transform="translate(-304.92 -196.3)"/><path class="cls-1" d="M368.74,291.48a82,82,0,0,1,8.57-2.15c2.77-.61,5.52-1.26,8.27-2a27,27,0,0,0,5.79-2.3c.52-.27,1.07-.66,1.65-.21s.4,1.16.24,1.76a16.29,16.29,0,0,1-1.51,3.32c-1.72,3.19-3.69,6.23-5.57,9.32a189.32,189.32,0,0,1-13.91,19.92,6.83,6.83,0,0,1-1.42,1.42,2,2,0,0,1-2.79-.14,10.37,10.37,0,0,1-2.66-3.85c-1.58-3.38-3.09-6.8-4.48-10.27q-.81-2-1.44-4a6.53,6.53,0,0,1,.32-4.93c.11-.25.29-.48.16-.78a1,1,0,0,1,.74-.29c1-.09.86-.54.38-1.12.09-.78.67-1.15,1.26-1.51.56-.05,1,.56,1.56.39.33-.42-.36-.67-.18-1.06.64-.67,1.62-.69,2.35-1.2.71,0,1.2.54,1.88.62C368.81,292.57,369,292.33,368.74,291.48Z" transform="translate(-304.92 -196.3)"/><path class="cls-1" d="M350.41,324.89a14.07,14.07,0,0,0-5.87,1.11,18.29,18.29,0,0,1-5.07,1,2.15,2.15,0,0,1-1.46-.34,1.64,1.64,0,0,1-.74-2.12,5.47,5.47,0,0,1,1.61-2.4c3-3.1,6-6.21,9.16-9.22q1.83-1.76,3.63-3.55a9.54,9.54,0,0,1,4.22-2.26,2.79,2.79,0,0,1,.82-.09c.72,0,1,.33,1,1a3,3,0,0,1-.45,1.33c-1.44,2.44-2.87,4.9-5.29,6.56a3.76,3.76,0,0,0-.71.62,1.52,1.52,0,0,0,.67,2.62,1.23,1.23,0,0,1,1.05,1.28,24.6,24.6,0,0,0,.41,2.55c.19,1.15-.23,1.72-1.41,1.83C351.43,324.93,350.92,324.89,350.41,324.89Z" transform="translate(-304.92 -196.3)"/><path class="cls-1" d="M358.73,296.27a4.27,4.27,0,0,1-.24.53q-2.78,4.32-5.57,8.62a27.92,27.92,0,0,1-3.83,4.16c-.14.14-.29.29-.5.14s-.08-.37,0-.53a57,57,0,0,0,3.07-7.77,1.43,1.43,0,0,1,.56-.74,11.79,11.79,0,0,0,3.9-5.5c.05-.11.12-.2.18-.31A3.25,3.25,0,0,1,358.73,296.27Z" transform="translate(-304.92 -196.3)"/><path class="cls-1" d="M353.6,293.87a94.74,94.74,0,0,1-5,10.89c-1.44,2.64-2.58,4.41-2.92,4.93a49.93,49.93,0,0,1-4.38,6c-2,2.28-4.91,5.9-6,7.27a5.71,5.71,0,0,0-.69,1.23,1.92,1.92,0,0,1-2.56,1.23c-1.26-.31-2.51-.65-3.76-1a3.15,3.15,0,0,1-.86-.37.45.45,0,0,1-.07-.79,6.52,6.52,0,0,1,1.07-.73c1.54-.87,3-1.89,4.48-2.84,4.53-2.92,7.85-7,10.85-11.36a23.91,23.91,0,0,0,3.43-9.47,62,62,0,0,1,2.17-8.43,9.09,9.09,0,0,1,1.69-3.19c.22-.23.43-.08.63,0a29.66,29.66,0,0,1,4,2.54.81.81,0,0,1,.35.58,16.13,16.13,0,0,1-1.93,3.15c-1.25-.26-1.95-1.34-2.9-2,.79.83,1.81,1.35,2.57,2.17,0,0,0,.07,0,.11S353.65,293.87,353.6,293.87Z" transform="translate(-304.92 -196.3)"/><path class="cls-1" d="M353.94,283.92a22.71,22.71,0,0,1,4.3-4.35c4.07-3,8-6.22,12-9.39a40.53,40.53,0,0,1,4.58-3.11A104.16,104.16,0,0,0,385.29,260l.28-.22c.38-.25.75-.73,1.25-.4s.28.88.19,1.31a23.87,23.87,0,0,1-3.72,9.48,147.78,147.78,0,0,1-12.15,14.75,33.28,33.28,0,0,1-6.27,5.52c-.06.26-.56.08-.48.48a6,6,0,0,1-2,1.55c-1.22-.4-2.47-.77-3.17-2A1.74,1.74,0,0,1,360,289c1-.16,1.65.54,2.38.81-.67-.49-1.69-.66-2.16-1.58-.06-.52.27-1,.28-1.53-.54.14-.82.67-1.35.72A14.75,14.75,0,0,1,353.94,283.92Z" transform="translate(-304.92 -196.3)"/><path class="cls-1" d="M401.55,202.33a8.08,8.08,0,0,1,5.18,1.66,23.56,23.56,0,0,1,3.22,2.59A148.94,148.94,0,0,1,420,217.66a27.52,27.52,0,0,1,3.61,5.79,4.43,4.43,0,0,1-.41,4.88,26.19,26.19,0,0,1-3.75,3.91c-2.81,2.53-5.71,4.95-8.67,7.3-1.29,1-2.56,2.1-3.75,3.24-2.39,2.29-4.87,4.48-7.38,6.62a14,14,0,0,1-3.45,2.25,5.12,5.12,0,0,1-2.89.36,1.5,1.5,0,0,1-1.53-1.49,11,11,0,0,1-.16-1.52c0-.68-.36-1-1-1.1a3.66,3.66,0,0,0-2.07.26,14.44,14.44,0,0,0-2.4,1.26c-5.79,3.42-11.69,6.65-17.31,10.35a19.86,19.86,0,0,1-1.94,1.12,23.43,23.43,0,0,0-6.21,4.45l-.09.08c-.23.16-.44.6-.74.31s.07-.58.23-.82a21.32,21.32,0,0,1,3.66-4,20.19,20.19,0,0,1,2.7-1.9,25.26,25.26,0,0,0,4.38-3.39c2.6-2.51,5.28-4.95,7.95-7.4q3.26-3,6.34-6.17a6.46,6.46,0,0,0,1.93-5.82,22.74,22.74,0,0,1-.12-5.53c.13-1.53.15-3.06.15-4.59a64.91,64.91,0,0,1,.24-8.37,23.32,23.32,0,0,1,3-9.26A12.46,12.46,0,0,1,401.55,202.33Z" transform="translate(-304.92 -196.3)"/><path class="cls-1" d="M469.88,244.68a20,20,0,0,1-.43,3.86c-.71,3.35-1.62,6.65-2.52,10a8.6,8.6,0,0,1-.29.9c-.14.36-.24.88-.7.84s-.26-.63-.34-1c-.19-.72-.3-1.47-.49-2.19a3.78,3.78,0,0,0-.68-1.36c-.82-1.07-1.59-1.16-2.59-.28a12.65,12.65,0,0,0-1.62,1.88,53.58,53.58,0,0,1-4.94,6,19.47,19.47,0,0,1-14.92,5.9,12.9,12.9,0,0,0-3.28.31,8.26,8.26,0,0,0-4.5,2.87c-.53.63-1.06,1.27-1.58,1.91a48.6,48.6,0,0,1-10.85,9.58,18.59,18.59,0,0,1-1.74,1,3.15,3.15,0,0,1-.88.34c-.45.09-1,.24-1.33-.19s-.14-.9.06-1.32a16.11,16.11,0,0,1,1.66-2.57,72.23,72.23,0,0,0,5.8-8.9,32.42,32.42,0,0,0,3.38-9.65,28.82,28.82,0,0,0-.57-11.36,43.72,43.72,0,0,1-.94-5,9.31,9.31,0,0,1,1.93-7.2c.66-.83,1.38-1.62,2.11-2.4a60.68,60.68,0,0,0,9-12.67,29.68,29.68,0,0,0,2.9-8.08,13.13,13.13,0,0,1,.32-1.38,2.47,2.47,0,0,1,2.67-2,6.57,6.57,0,0,1,2.64.55,20.15,20.15,0,0,1,8.9,6.75c4.34,5.91,8.28,12.07,12.05,18.34A12,12,0,0,1,469.88,244.68Z" transform="translate(-304.92 -196.3)"/><path class="cls-1" d="M384.26,285.56c.06-.58.51-.81.84-1.12a68.75,68.75,0,0,0,8.2-9.26c0-.07.1-.12.14-.19,3.13-5.22,7-10,9.78-15.43a19.49,19.49,0,0,1,4.34-5.54c1.69-1.54,3.35-3.09,5.18-4.47A18.63,18.63,0,0,0,414.5,248a51.2,51.2,0,0,1,4.46-3.86,11.05,11.05,0,0,1,1.47-1A2.21,2.21,0,0,1,423.8,245a4.32,4.32,0,0,1-.22,2,11.45,11.45,0,0,1-6.6,7.12,16.47,16.47,0,0,0-4.94,3.16,71.84,71.84,0,0,0-10.18,11.44,84.48,84.48,0,0,1-8,9.91,40.58,40.58,0,0,1-8.09,6.46C385.33,285.3,384.9,285.71,384.26,285.56Z" transform="translate(-304.92 -196.3)"/><path class="cls-1" d="M348.31,285.23c-.37,1.08-1.34,1.93-1.27,3.18-1.5,1.78-1.7,4.06-2.35,6.16a54.37,54.37,0,0,1-5.5,12c-1.34,2.22-2.73,4.42-4.11,6.62a17.77,17.77,0,0,1-2.69,3.43,4,4,0,0,1-.43.39c-.32.21-.63.66-1,.41s-.06-.72,0-1.08a16.75,16.75,0,0,0,.3-1.86,18.41,18.41,0,0,1,.44-3,22.86,22.86,0,0,0,.65-5,3.5,3.5,0,0,1,1-2.58,32.9,32.9,0,0,0,4.91-6.76c.69-1.15,1.4-2.28,2.15-3.39a42.48,42.48,0,0,0,2.91-6.18c.18-.39-.25-.43-.25-.68l.08-.14a3.26,3.26,0,0,0,.29-.36c.35-.55.57-1.18.89-1.74.55-.95-1-.58-.78-1.3,1.9,0,1.7-1.78,2.34-2.84a1,1,0,0,0,.53-1c0-1.8,1.14-2.91,2.44-3.82,3.38-2.36,6.65-4.89,10-7.24a193.82,193.82,0,0,1,18-10.84c3.22-1.76,6.23-3.83,9.37-5.7.07,0,.12-.1.19-.14.37-.23.77-.56,1.19-.28s.14.73.11,1.1-.15,1-.23,1.52a3.8,3.8,0,0,1-1.63,2.63,8.93,8.93,0,0,1-1.53.88,91.17,91.17,0,0,0-13.33,7.3,171.77,171.77,0,0,0-15.09,10.93,29.46,29.46,0,0,0-5.54,5.94c-.28.38-.44.71,0,1a.57.57,0,0,1-.28.38c-.91.29-.89,1.39-1.6,1.85a.51.51,0,0,1-.32-.05C348.16,285.08,348.31,285.13,348.31,285.23Z" transform="translate(-304.92 -196.3)"/><path class="cls-1" d="M323.59,318.55a5.93,5.93,0,0,1,3.52-1.78,3.83,3.83,0,0,1,2.36.38c.18.1,1.26.74,1.18,1.49,0,.42-.43.69-.68.87-2.31,1.66-.15.64-2.93,2.36s-4.36,2.68-5,2.22a1.59,1.59,0,0,1-.41-1,3.49,3.49,0,0,1,.38-1.95A7.34,7.34,0,0,1,323.59,318.55Z" transform="translate(-304.92 -196.3)"/><path class="cls-3" d="M468.3,243.76a21,21,0,0,1-.42,3.87c-.72,3.34-1.63,6.64-2.53,9.94a8.6,8.6,0,0,1-.29.9c-.14.36-.24.88-.7.84s-.25-.63-.34-1c-.18-.72-.3-1.47-.49-2.19a3.63,3.63,0,0,0-.68-1.36c-.82-1.07-1.58-1.15-2.59-.27a12.09,12.09,0,0,0-1.62,1.87,54.6,54.6,0,0,1-4.93,6,19.49,19.49,0,0,1-14.92,5.9,12.94,12.94,0,0,0-3.29.31,8.26,8.26,0,0,0-4.5,2.87c-.53.63-1.06,1.27-1.58,1.91A48.77,48.77,0,0,1,418.58,283c-.56.37-1.16.68-1.75,1a3,3,0,0,1-.88.34c-.45.09-1,.24-1.33-.18s-.14-.9.06-1.33a15.5,15.5,0,0,1,1.67-2.57,73.33,73.33,0,0,0,5.79-8.9,32.42,32.42,0,0,0,3.38-9.65,28.82,28.82,0,0,0-.57-11.36,43.72,43.72,0,0,1-.94-5,9.31,9.31,0,0,1,1.93-7.2c.66-.83,1.38-1.62,2.11-2.4a60.68,60.68,0,0,0,9-12.67A29.68,29.68,0,0,0,440,215c.1-.46.18-.93.32-1.38a2.47,2.47,0,0,1,2.67-2,6.57,6.57,0,0,1,2.64.55,20.15,20.15,0,0,1,8.9,6.75c4.34,5.91,8.28,12.07,12,18.34A12,12,0,0,1,468.3,243.76Z" transform="translate(-304.92 -196.3)"/><path class="cls-3" d="M399.77,202.09a8,8,0,0,1,5.17,1.66,24.34,24.34,0,0,1,3.22,2.59,148.94,148.94,0,0,1,10.08,11.08,27.79,27.79,0,0,1,3.62,5.8,4.4,4.4,0,0,1-.42,4.87,25.77,25.77,0,0,1-3.75,3.92c-2.8,2.53-5.71,5-8.67,7.3-1.29,1-2.56,2.09-3.75,3.23-2.39,2.29-4.87,4.48-7.38,6.63a14,14,0,0,1-3.45,2.24,5.12,5.12,0,0,1-2.89.36,1.5,1.5,0,0,1-1.53-1.49,11,11,0,0,1-.16-1.52c0-.68-.36-1-1-1.1a3.66,3.66,0,0,0-2.07.26,15.73,15.73,0,0,0-2.4,1.27c-5.79,3.41-11.69,6.64-17.31,10.34a22.24,22.24,0,0,1-1.94,1.13,23.33,23.33,0,0,0-6.21,4.44l-.09.09c-.23.16-.44.59-.74.3s.07-.58.23-.81a21,21,0,0,1,3.66-4,20.27,20.27,0,0,1,2.7-1.91,24.78,24.78,0,0,0,4.38-3.39c2.61-2.51,5.28-4.95,7.95-7.4q3.25-3,6.34-6.17A6.4,6.4,0,0,0,385.3,236a22.26,22.26,0,0,1-.11-5.53c.12-1.54.14-3.07.14-4.6a65,65,0,0,1,.24-8.37,23.27,23.27,0,0,1,3-9.25A12.45,12.45,0,0,1,399.77,202.09Z" transform="translate(-304.92 -196.3)"/><path class="cls-4" d="M455,358.29a12,12,0,0,0-3.8-2.54,27.44,27.44,0,0,0-8.85-2.4,13.5,13.5,0,0,1-6.17-2.2,36.77,36.77,0,0,1-7-5.62c-3.73-4.1-8.43-6.38-13.66-7.75a49.69,49.69,0,0,1-5.94-1.95,66.88,66.88,0,0,0-11-3c-4.54-1-9.14-1.64-13.72-2.38-3.77-.61-7.58-.93-11.34-1.62-2.83-.53-5.61-1.22-8.37-2a9.75,9.75,0,0,1-5.17-3.35,6.81,6.81,0,0,1-1.38-2.93l3.43.55c4.82.81,9.62,1.67,14.44,2.41q6.78,1,13.61,1.55c8.52.66,17,1.42,25.46,2.87a75.1,75.1,0,0,1,21.67,7.48c5.6,2.88,11,6.17,16.4,9.36A127.81,127.81,0,0,0,475.38,355c5.78,2.06,11.68,3.76,17.63,5.26,2.41.61,4.85,1.06,7.27,1.57a6.42,6.42,0,0,1,2.88,1.28,8.33,8.33,0,0,0,2.52,1.28c.32.11.7.11.95.51-.42.37-.88.18-1.31.12-2.61-.37-5.23-.68-7.86-.84-1.26-.07-2.52-.06-3.78-.05a56,56,0,0,1-6.48-.35,19,19,0,0,0-9.08.89,19.93,19.93,0,0,1-6.05.95c-1.5.33-2.9-.31-4.35-.49-1.27-.15-2.52-.49-3.79-.7a21,21,0,0,1-7.27-4.14c-.33-.28-1.09-.55-.4-1.22,2.89.28,5.77.68,8.66.91,1.37.12,2.74.2,4.12.2a7.49,7.49,0,0,1,2,.32,23.53,23.53,0,0,0-4.73-.44c-3.39-.37-6.8-.55-10.16-1.2C455.68,358.79,455.24,358.75,455,358.29Z" transform="translate(-304.92 -196.3)"/><path class="cls-5" d="M441.86,384.33c-.36-.36-.81-.23-1.23-.22a127.82,127.82,0,0,0-15.5,1.48c-3.42.53-6.87.86-10.3,1.36-4.79.69-9.59,1.3-14.31,2.39-1.72.39-3.37,1.06-5.06,1.58-2.3.71-4.7,1-7,1.68a25,25,0,0,0-6.56,2.58,4.38,4.38,0,0,1-1,.44c-3.39,1-6.07,3.23-8.91,5.16a4.82,4.82,0,0,1-1.47.69c-1.6.43-3.25.67-4.83,1.18a2.69,2.69,0,0,1-2.88-.57c-1.67-1.9-3.93-2.83-6-4a5.27,5.27,0,0,1-2-1.67,3.42,3.42,0,0,0-.67-.7,62.73,62.73,0,0,1-5.63-5.9,20.76,20.76,0,0,1-3.17-4.95,15.83,15.83,0,0,1-.84-3.55c-.13-.54.28-.82.74-.87a7.14,7.14,0,0,1,1.53,0c.77.06,1.55.17,2.58.28a21.82,21.82,0,0,1-1.46-3.33c-.32-.89-.67-1.77-.94-2.67a4.33,4.33,0,0,1,.41-3.53,1.67,1.67,0,0,1,1.5-1c.75,0,1.11.51,1.38,1.11a8.81,8.81,0,0,0,1.91,3c0-.48,0-.84.08-1.2a3.57,3.57,0,0,1,1-2.34,1.28,1.28,0,0,1,.91-.33c1.17.06,1.36.77,1.65,1.42a10.56,10.56,0,0,0,7,5.8c2.92.91,5.77.42,8.64,0a16.92,16.92,0,0,0,8.14-3.22,8.4,8.4,0,0,0,1.59-1.72,5.29,5.29,0,0,1,2.44-1.8c.84-.32,1.68-.69,2.55-.93,4.68-1.28,9-3.4,13.58-5.06a7.86,7.86,0,0,0,2.84-1.6c.4-.07.5.27.68.5a26.26,26.26,0,0,1,2.19,3.27c.23.39.69.79.32,1.35a126,126,0,0,1-22.05,10.45,93.53,93.53,0,0,1-15.27,3.56,80.77,80.77,0,0,1-16.57,1.27c-1.06,0-2.1-.31-3.17-.24s-1.17.22-.75,1.11a11.89,11.89,0,0,0,6.54,6.47c1,.38,2,.83,2.94,1.24a8.94,8.94,0,0,1,4,3.35,13.52,13.52,0,0,0,.81,1.17c1,1.21,1.65,1.08,3.31-.16a7.62,7.62,0,0,0,2-2.3,5.66,5.66,0,0,1,4.2-2.78,17.51,17.51,0,0,1,4.8-.37c1.73.14,3.41-.51,5.13-.7a47.29,47.29,0,0,0,7.67-1.92c4.24-1.21,8.5-2.31,12.7-3.7,3.66-1.21,7.53-1.64,11.31-2.43,4.62-1,9.22-2.06,13.89-2.84a42.28,42.28,0,0,1,7.28-.56c.52,0,1.05.06,1.17-.65a.42.42,0,0,1,.44,0c1.51,1.07,3.21.67,4.85.59a7.62,7.62,0,0,1,2.9.11c-.12-.05-.13-.34-.18-.2s-.06.08-.1.08c-.35,0-.47-.2-.35-.53,1.22,0,2.38.49,3.61.52a19.69,19.69,0,0,0,2.66.06.54.54,0,0,1,.35.08c2.23,1.3,4.43,2.65,6.54,4.15a.56.56,0,0,1,.28.6h-4.51c.14.4.56.5.86.71,1.57,1.09,3.15,2.16,4.73,3.24.22.15.48.26.6.53l-.08.09c-1.39-.62-2.44-1.79-3.86-2.36a7.31,7.31,0,0,1-2.2-1.49,2.46,2.46,0,0,0-1.94-.81c-2.2.09-4.41.12-6.62.18C443.11,384.08,442.4,383.83,441.86,384.33Z" transform="translate(-304.92 -196.3)"/><path class="cls-6" d="M439.71,300.86c-.23,0-.6-.08-.42.39l.39,1.06c-.49.32-.91,0-1.33-.18-1-.37-2-1-3-1.4-.31-.13-.73-.31-.9.16s.23.64.58.74c1.24.34,2.46.79,3.7,1.15a4.4,4.4,0,0,1,1.94.75c.05.54.47,1,.24,1.62-1,0-1.6-.73-2.38-1a5.94,5.94,0,0,0,2.81,2,1,1,0,0,1,.77.66c-.09.5.28.8.5,1.15a30.47,30.47,0,0,0,10.58,9.92,84.69,84.69,0,0,0,13.1,5.91c4.22,1.61,8.54,3,12.69,4.76a4.57,4.57,0,0,1,1.7,1.21,71.12,71.12,0,0,1,8.16,12c1.26,2.26,2.45,4.56,3.73,7a1.68,1.68,0,0,1-1-.3,220.73,220.73,0,0,0-36.53-14.26c-4.12-1.19-8.21-2.48-12.31-3.71-.46-.14-.94-.17-.73-.89a15.86,15.86,0,0,0-.39-8.95c-.64-2.24-1.51-4.39-2.26-6.58a26,26,0,0,1-1.15-3.84,1.63,1.63,0,0,0-1.58-1.49c-1.49,0-1.88-.95-2.24-2.2A62.19,62.19,0,0,1,432,293.68c0-.43,0-.86-.06-1.29.43-.14.59.21.81.39a19.78,19.78,0,0,0,4.16,2.67,1.48,1.48,0,0,1,.93,1.11c.14.73.36,1.44.55,2.17-.72.65-1.46-.31-2.28,0a7.45,7.45,0,0,0,2.64,1.47C439.08,300.37,439.62,300.28,439.71,300.86Z" transform="translate(-304.92 -196.3)"/><path class="cls-4" d="M465,303.27c1.06-1.15,2.14-2.3,3.18-3.47a61.37,61.37,0,0,0,8-11.1,39.14,39.14,0,0,0,4.57-22.33,49.89,49.89,0,0,0-4.36-17.05,21.52,21.52,0,0,0-2.68-4.43,76.09,76.09,0,0,1-4.35-6.32c-.24-.39-.83-.89-.3-1.33s.88.18,1.24.44a74.81,74.81,0,0,1,7.18,6.12A60.46,60.46,0,0,1,487.78,256a32.21,32.21,0,0,1,4.64,11.78,26.79,26.79,0,0,1-1.81,15.14,54.18,54.18,0,0,1-14.32,19.7l-1,.86c-.37.39-.86.32-1.33.33-2.44,0-4.88,0-7.32,0C466.06,303.81,465.4,303.88,465,303.27Z" transform="translate(-304.92 -196.3)"/><path class="cls-5" d="M366.69,291a83.93,83.93,0,0,1,8.57-2.16c2.76-.6,5.52-1.25,8.26-2a26.59,26.59,0,0,0,5.8-2.31c.51-.26,1.07-.65,1.64-.2s.41,1.16.24,1.76a17.07,17.07,0,0,1-1.5,3.32c-1.73,3.19-3.69,6.23-5.57,9.32a189.4,189.4,0,0,1-13.92,19.92,7,7,0,0,1-1.41,1.42A2,2,0,0,1,366,320a10.49,10.49,0,0,1-2.66-3.85c-1.58-3.39-3.08-6.8-4.48-10.27-.53-1.31-1-2.64-1.43-4a6.58,6.58,0,0,1,.31-4.93c.12-.25.29-.48.17-.78a1,1,0,0,1,.74-.29c1-.09.85-.54.37-1.12.09-.79.67-1.15,1.27-1.51.56-.05.95.56,1.55.39.34-.42-.35-.67-.18-1.06.65-.67,1.62-.69,2.35-1.2.71,0,1.21.54,1.88.62C366.75,292.1,367,291.86,366.69,291Z" transform="translate(-304.92 -196.3)"/><path class="cls-7" d="M352.24,283.92a22.43,22.43,0,0,1,4.3-4.35c4.06-3,8-6.22,12-9.39a39.77,39.77,0,0,1,4.59-3.11A105.31,105.31,0,0,0,383.59,260l.27-.22c.38-.25.75-.73,1.25-.4s.28.88.2,1.31a23.88,23.88,0,0,1-3.73,9.48,147.78,147.78,0,0,1-12.15,14.75,33,33,0,0,1-6.27,5.52c-.06.26-.56.08-.48.48a6,6,0,0,1-2,1.55c-1.22-.4-2.47-.77-3.16-2a1.73,1.73,0,0,1,.77-1.53c1-.16,1.65.54,2.38.81-.66-.49-1.69-.66-2.16-1.58-.06-.52.27-1,.28-1.53-.54.14-.82.67-1.35.72A14.8,14.8,0,0,1,352.24,283.92Z" transform="translate(-304.92 -196.3)"/><path class="cls-3" d="M349,285.83c-.36,1.08-1.33,1.92-1.26,3.18-1.51,1.78-1.71,4.06-2.36,6.16a55,55,0,0,1-5.49,12c-1.35,2.22-2.73,4.41-4.11,6.61a18.25,18.25,0,0,1-2.69,3.43,3.23,3.23,0,0,1-.44.39c-.31.22-.62.67-1,.41s-.05-.71,0-1.08a14.15,14.15,0,0,0,.31-1.86,18.28,18.28,0,0,1,.43-3,22.36,22.36,0,0,0,.65-5,3.53,3.53,0,0,1,1-2.58,33.25,33.25,0,0,0,4.92-6.75c.68-1.15,1.4-2.28,2.14-3.39A42.53,42.53,0,0,0,344,288.1c.18-.39-.26-.43-.26-.68a1.09,1.09,0,0,0,.08-.15,3.27,3.27,0,0,0,.3-.35c.34-.56.56-1.18.89-1.74.54-.95-1-.59-.79-1.3,1.9,0,1.7-1.78,2.34-2.84a1.05,1.05,0,0,0,.54-1c0-1.8,1.13-2.92,2.43-3.82,3.39-2.37,6.66-4.89,10.05-7.25a196.19,196.19,0,0,1,18-10.84c3.21-1.75,6.23-3.82,9.36-5.7l.19-.13c.37-.23.77-.56,1.19-.28s.15.72.11,1.1-.14,1-.23,1.51a3.81,3.81,0,0,1-1.63,2.64,8.27,8.27,0,0,1-1.53.87,93.63,93.63,0,0,0-13.33,7.3,171.88,171.88,0,0,0-15.09,10.94,29.69,29.69,0,0,0-5.54,5.93c-.28.39-.43.72,0,1.06a.54.54,0,0,1-.28.38c-.91.29-.89,1.38-1.6,1.84a.41.41,0,0,1-.32-.05C348.85,285.68,349,285.72,349,285.83Z" transform="translate(-304.92 -196.3)"/><path class="cls-8" d="M421.11,299.25a22.42,22.42,0,0,1,7.82,6.7,42.73,42.73,0,0,0,3.1,4,23.25,23.25,0,0,1,2.87,3.89c.17.31.35.68.69.77.69.18.85.72,1.06,1.27a51.51,51.51,0,0,1,2,5.8,14.18,14.18,0,0,1,.37,6.18,1.56,1.56,0,0,1-.4,1c-8.23-2.66-16.31-5.76-23.81-10.36C420,313.13,421.1,306.45,421.11,299.25Z" transform="translate(-304.92 -196.3)"/><path class="cls-3" d="M391.05,307.52c4.17,0,7.06,1.25,9.17,4.09.31.41.64.8.94,1.22a25.63,25.63,0,0,0,11.92,9.1c.84.33,1.68.68,2.51,1,.29.13.59.31.5.7s-.45.38-.77.4a19.5,19.5,0,0,1-4.1-.38c-6.17-1-12.34-2-18.52-2.91l-10.52-1.46a14.92,14.92,0,0,1-3.09-.72,2.4,2.4,0,0,1-1.52-3.58,6.93,6.93,0,0,1,1.54-2.21A17.94,17.94,0,0,1,391.05,307.52Z" transform="translate(-304.92 -196.3)"/><path class="cls-4" d="M383.67,284.31c.06-.58.51-.81.84-1.12a68.75,68.75,0,0,0,8.2-9.26c0-.07.1-.12.14-.19,3.14-5.22,7-10,9.78-15.43a19.35,19.35,0,0,1,4.34-5.54c1.69-1.54,3.35-3.1,5.18-4.47a17.46,17.46,0,0,0,1.76-1.57,51.2,51.2,0,0,1,4.46-3.86,11.05,11.05,0,0,1,1.47-1,2.21,2.21,0,0,1,3.37,1.82,4.32,4.32,0,0,1-.22,2,11.43,11.43,0,0,1-6.6,7.12,16.3,16.3,0,0,0-4.93,3.16,71,71,0,0,0-10.19,11.44,84.48,84.48,0,0,1-8,9.91,40.65,40.65,0,0,1-8.09,6.46C384.75,284.05,384.32,284.46,383.67,284.31Z" transform="translate(-304.92 -196.3)"/><path class="cls-4" d="M417.4,292.63c-6.64.61-13.13,1.66-19.19,4.77-.07-.11-.15-.2-.2-.3a82.38,82.38,0,0,1-5-11.58,10.85,10.85,0,0,1-.59-2.64c-.06-1,0-1.09,1-1.1a17.29,17.29,0,0,1,5.86,1.23,73.83,73.83,0,0,1,11.49,5.49C413,289.78,415.24,291.1,417.4,292.63Z" transform="translate(-304.92 -196.3)"/><path class="cls-3" d="M349.29,324.32a14,14,0,0,0-5.87,1.12,18.22,18.22,0,0,1-5.06,1,2.15,2.15,0,0,1-1.47-.35,1.65,1.65,0,0,1-.74-2.11,5.35,5.35,0,0,1,1.62-2.4c3-3.1,6-6.22,9.16-9.22q1.83-1.77,3.63-3.55a9.48,9.48,0,0,1,4.22-2.26,2.77,2.77,0,0,1,.81-.1c.72,0,1,.34,1,1a2.88,2.88,0,0,1-.44,1.33c-1.44,2.44-2.87,4.9-5.29,6.55a4.21,4.21,0,0,0-.71.62,1.51,1.51,0,0,0,.67,2.62,1.23,1.23,0,0,1,1,1.28,24.82,24.82,0,0,0,.42,2.56c.19,1.15-.23,1.71-1.41,1.83C350.32,324.36,349.81,324.32,349.29,324.32Z" transform="translate(-304.92 -196.3)"/><path class="cls-5" d="M469.38,382.38a.26.26,0,0,1,.35.12,1.52,1.52,0,0,0,1.19.65c1.71.77,3.44,1.52,5.13,2.33a41.2,41.2,0,0,1,7.92,4.87,13.83,13.83,0,0,0,9.68,3c6.1-.26,12.17-.84,18.21-1.66.47-.07.94-.11,1.4-.18s.55,0,.63.33-.15.46-.45.53c-1.5.33-3,.68-4.48,1-3.47.84-6.94,1.72-10.42,2.54a16.61,16.61,0,0,1-11-1.26,104,104,0,0,1-9.8-5.16,37.88,37.88,0,0,0-11.92-4.27,60.18,60.18,0,0,0-6.42-.94c-.33,0-.78-.31-1,.2a.56.56,0,0,1-.54-.11c-2-1.39-4-2.65-6.06-4-.3-.2-.77-.36-.24-.81,2.94.08,5.84.54,8.75.89s5.84,1.16,8.75,1.78A1.64,1.64,0,0,1,469.38,382.38Z" transform="translate(-304.92 -196.3)"/><path class="cls-8" d="M353,293.22a95,95,0,0,1-5,10.9c-1.44,2.64-2.58,4.4-2.92,4.93a51.05,51.05,0,0,1-4.38,6c-2,2.28-4.92,5.9-6,7.26a6.49,6.49,0,0,0-.68,1.24,1.91,1.91,0,0,1-2.56,1.22c-1.26-.3-2.51-.64-3.76-1a2.64,2.64,0,0,1-.86-.37.45.45,0,0,1-.07-.79,7.6,7.6,0,0,1,1.06-.72c1.55-.88,3-1.89,4.49-2.85,4.53-2.91,7.84-7,10.85-11.35a24.12,24.12,0,0,0,3.43-9.47,63.52,63.52,0,0,1,2.16-8.43,9.29,9.29,0,0,1,1.7-3.19c.22-.23.43-.09.63,0a29,29,0,0,1,4,2.54.75.75,0,0,1,.35.58,15.82,15.82,0,0,1-1.92,3.14c-1.26-.26-2-1.33-2.91-2,.8.83,1.82,1.35,2.58,2.17,0,0,0,.07,0,.11S353.07,293.22,353,293.22Z" transform="translate(-304.92 -196.3)"/><path class="cls-3" d="M475.83,258.6a8.79,8.79,0,0,1-.46,2.94,51.41,51.41,0,0,0-2.14,9.16,9.94,9.94,0,0,0,.36,4.2,36.34,36.34,0,0,1,1,4.25c.05.34.2.75-.22.93s-.75-.11-1-.45a6.33,6.33,0,0,1-.79-1.71c-.79-2.42-1.55-4.86-2.35-7.28a21.81,21.81,0,0,0-1-2.77,16,16,0,0,1-1.3-5.22,8.8,8.8,0,0,1,.3-3.27q.93-3.42,1.87-6.82a12.11,12.11,0,0,0-.16-6.75,1.87,1.87,0,0,1-.14-.44c0-.39-.57-.89,0-1.12.44-.18.59.42.75.74a99.64,99.64,0,0,1,4.46,9.75A13.86,13.86,0,0,1,475.83,258.6Z" transform="translate(-304.92 -196.3)"/><path class="cls-9" d="M410.71,349.63a22.93,22.93,0,0,1,1.05,2.32c-.66.35-1.24-.38-2-.15,1.6,1.27,3.57,1.65,5.06,2.89a9.87,9.87,0,0,0,1.79,2.69.57.57,0,0,1,.2.72c-1.16.18-1.94-.67-2.87-1.09a5.85,5.85,0,0,0-1.66-.72c3.67,2,7.61,3.43,11.28,5.41a57.27,57.27,0,0,0,7.43,3.62,6.82,6.82,0,0,0,2.65.49c2.66.9,5.19,2.12,7.75,3.25.25.1.79.22.35.72a3.39,3.39,0,0,1-2.18,0,52.52,52.52,0,0,0-7.39-1,7.59,7.59,0,0,1-3-1.36c-4.3-2.28-8.5-4.76-13.08-6.47a5.85,5.85,0,0,0-2.32-2.6,26.15,26.15,0,0,0-6.17-2.9c-1-.33-1-.33-.84-1.36a9.66,9.66,0,0,0-1.24-5.9,3.18,3.18,0,0,1-.5-1.3,25,25,0,0,0-2.65-9.35c-.05-.11-.08-.22-.13-.34.35-.18.6.08.86.2a51.78,51.78,0,0,1,7.12,3.91,7,7,0,0,1,1.53,1.29c.27.32.6.66.29,1.14-.78.22-1.31-.36-1.93-.62a6,6,0,0,0-2.67-.79,2.78,2.78,0,0,0,1.47,1.05c.61.3,1.38.34,1.79,1-.36.8-1.44.49-1.86,1.2-.43.21-.81-.3-1.28-.05.52.61,1.64.47,1.8,1.47l.75,1.59c-.63.46-1.16-.23-1.82-.1.39.36.91.32,1.34.48S410.58,349,410.71,349.63Z" transform="translate(-304.92 -196.3)"/><path class="cls-3" d="M515,338.77a4.79,4.79,0,0,1-.93,2.6,28.23,28.23,0,0,0-1.61,4.11,44,44,0,0,0-1.79,7.73,15.86,15.86,0,0,0,.17,6.43,2.52,2.52,0,0,1,.16,1.15c-.34-.12-.39,0-.4.34,0,.49.12,1.12-.52,1.31s-1-.39-1.3-.81a37,37,0,0,0-9.82-8.93,3.51,3.51,0,0,1-1.14-1.46c-2.37-4.67-4.69-9.36-7.47-13.8-1-1.56-2-3.08-3.19-4.87.5.33.78.5,1,.7A44.62,44.62,0,0,1,499,344.74a24.93,24.93,0,0,0,3,3.91c2.41,2.55,4.69,5.21,7,7.85a19.84,19.84,0,0,1,1.24,1.74,17.68,17.68,0,0,1,.32-6.43,59.6,59.6,0,0,1,1.82-7.16c.63-1.74,1.43-3.39,2.13-5.09A1.66,1.66,0,0,1,515,338.77Z" transform="translate(-304.92 -196.3)"/><path class="cls-8" d="M470.11,281.71c-2.51-1.36-5.23-2.17-7.71-3.52-.58-.31-1.15-.67-1.71-1a7.61,7.61,0,0,1-3.66-6.61c0-.63,0-1.26,0-1.89s0-1.11-.5-1.48c-.27-.19-.18-.4-.06-.62a20.21,20.21,0,0,1,3.69-5.29,2.6,2.6,0,0,1,.36-.3c1.18-.86,1.93-.57,2.08.87s.23,3.13.46,4.69a25,25,0,0,0,4,10.47c.84,1.23,1.64,2.49,2.45,3.75C469.73,281.05,469.91,281.39,470.11,281.71Z" transform="translate(-304.92 -196.3)"/><path class="cls-3" d="M356.25,346.26a4.32,4.32,0,0,1-1.36-1.58c-.16-.34-.32-.72-.89-.74,0,1.18.95,1.73,1.56,2.48a3.44,3.44,0,0,1-3.23.56c-.75-.37-.85-1.17-1.18-1.81-.18-.33-.19-.75-.79-1,0,1.28.93,2,1.41,3a2.7,2.7,0,0,1-2.31.54,2.69,2.69,0,0,0-.87-.91c-.12.44.31.57.33.87-.55,0-1.1,0-1.65,0a4,4,0,0,1-1.49-.3,1.56,1.56,0,0,1-1-1.91,4.08,4.08,0,0,1,1.68-2.48,12.13,12.13,0,0,1,5.43-2.13c.47-.07.94-.14,1.41-.18a4.43,4.43,0,0,1,3.57,1.21,2.36,2.36,0,0,1,.07,3.64C356.7,345.75,356.3,345.84,356.25,346.26Z" transform="translate(-304.92 -196.3)"/><path class="cls-3" d="M364.29,345.55l-.23.23a3.13,3.13,0,0,0-1.8-1,4.12,4.12,0,0,1-1.71-.76,1.37,1.37,0,0,1-.26-2.15,3.56,3.56,0,0,1,1.59-1.17,16.45,16.45,0,0,1,8-.74,6.28,6.28,0,0,1,3,1.33c1.27,1,1.28,2,.05,3-.12.1-.22.21-.33.31-1,.14-1.16-1-1.9-1.14.26.4,1.14.44.86,1.31a5.36,5.36,0,0,1-2.73.54,5.45,5.45,0,0,1-1.29-1.75c-.09-.17-.25-.35-.46-.26s-.17.37-.1.59c.15.5.63.78.83,1.24-.67.47-1.44.2-2.16.28C365.2,345.43,364.72,345.25,364.29,345.55Z" transform="translate(-304.92 -196.3)"/><path class="cls-10" d="M410.71,349.63a3.18,3.18,0,0,0-1.87-.5,1.45,1.45,0,0,1-1.29-1.07,8.56,8.56,0,0,1,2.55.51c26.45,12.2,54.28,19.94,82.77,25.51a8.46,8.46,0,0,1-2.18-.12c-.74-.11-1.49-.15-2.24-.2-8.06-.6-15.71-3.06-23.39-5.32-8.28-2.44-16.6-4.75-24.8-7.43a272.73,272.73,0,0,1-29-11.16Z" transform="translate(-304.92 -196.3)"/><path class="cls-9" d="M353.71,322a10.64,10.64,0,0,1,1.06-4.41,4,4,0,0,0,.32-3.29,3.38,3.38,0,0,1,1.23-3.46,2,2,0,0,1,2.11-.28,4,4,0,0,1,2.14,2.09,8.66,8.66,0,0,1,.63,3.1,1.69,1.69,0,0,1-1.22,1.82,4,4,0,0,0-2.8,2.76,9.54,9.54,0,0,1-1.83,2.87c-.25.29-.5.67-1,.57s-.52-.64-.61-1A4.32,4.32,0,0,1,353.71,322Z" transform="translate(-304.92 -196.3)"/><path class="cls-11" d="M459,308.42c1.54-1.33,3.16-2.57,4.61-4,.22-.22.43-.46.64-.68.81-.55,1.68-.13,2.5-.09,2.23.1,4.46,0,6.69.08a2,2,0,0,1,.81.09c.59.67-.14.89-.47,1.14a40.61,40.61,0,0,1-5.18,3.41,21.75,21.75,0,0,1-3.32,1.72,34.73,34.73,0,0,1-5.8-1.2A.65.65,0,0,1,459,308.42Z" transform="translate(-304.92 -196.3)"/><path class="cls-3" d="M355,333.92a6.66,6.66,0,0,1,4.47,1.53,3.56,3.56,0,0,1,1.1,1.36c.62,1.44.22,2.37-1.28,2.8a9.73,9.73,0,0,1-5.92.06,4.52,4.52,0,0,1-2.64-2,1.87,1.87,0,0,1,.85-2.93A7.46,7.46,0,0,1,355,333.92Z" transform="translate(-304.92 -196.3)"/><path class="cls-12" d="M364.23,335.58a5.39,5.39,0,0,1-4.83-2.8,1.75,1.75,0,0,1,1-2.76,7.38,7.38,0,0,1,8.05,1.05,3.74,3.74,0,0,1,.65.67,1.58,1.58,0,0,1-.37,2.52A8.15,8.15,0,0,1,364.23,335.58Z" transform="translate(-304.92 -196.3)"/><path class="cls-12" d="M371.57,335a16.51,16.51,0,0,1,4.32.43,3.84,3.84,0,0,1,2.1,1.23,1.82,1.82,0,0,1,.41,2,1.84,1.84,0,0,1-1.66,1.12,24,24,0,0,1-8.71-1,5.1,5.1,0,0,1-1.39-.62,1.24,1.24,0,0,1-.07-2.21,4.21,4.21,0,0,1,1.84-.72,11,11,0,0,1,1.4-.21C370.39,334.92,371,335,371.57,335Z" transform="translate(-304.92 -196.3)"/><path class="cls-3" d="M388.42,347.41a21.07,21.07,0,0,1-2.86-.14c-.07,0-.17.11-.26.17-1.37-.48-2.38-1.55-3.6-2.28a6.2,6.2,0,0,0-1.84-.87c-.16,0,0,.25,0,.09s0-.07.11,0a6.7,6.7,0,0,1,3.51,2.39,14.56,14.56,0,0,1-3.51-.94,3.92,3.92,0,0,1-2-1.73,1.38,1.38,0,0,1,.43-2,3.08,3.08,0,0,1,1.52-.61,6.33,6.33,0,0,1,2,0,20.8,20.8,0,0,1,7.41,2.59,4.24,4.24,0,0,1,1.16,1,1.15,1.15,0,0,1-.25,1.83c-.21.15-.55.16-.56.53-.44.2-.72-.14-1-.34a28.52,28.52,0,0,0-3.47-1.91,20.83,20.83,0,0,1,2.69,1.51C388.06,346.85,388.47,347,388.42,347.41Z" transform="translate(-304.92 -196.3)"/><path class="cls-9" d="M416,366.76l-2.33-2.82c.4-.86,1.5-1,1.91-1.89l0,0c.3-.05.24-.42.48-.53a2.72,2.72,0,0,1,2.26.3c3.92,1.75,7.71,3.74,11.47,5.8.23.12.67.19.4.65a10.8,10.8,0,0,1-2.54-.05,2.19,2.19,0,0,1-1.26-.6c-.31-.31-.54-.2-.8,0a3.38,3.38,0,0,1-1.34.11,4.29,4.29,0,0,1-1.94-1c.07.22.36.41,0,.62a6.25,6.25,0,0,1-1.88-.1c-.9-.17-1.53-.88-2.39-1.16.14.26.64.4.24.81A2.93,2.93,0,0,1,416,366.76Z" transform="translate(-304.92 -196.3)"/><path class="cls-13" d="M410.54,344.36c-.88-.39-1.78-.76-2.65-1.19-.41-.21-1.15-.4-.86-1s.92-.24,1.39-.08a19.4,19.4,0,0,1,3,1.36c.2.1.42.18.64.27a75.84,75.84,0,0,0,13.67,6.75,141.54,141.54,0,0,0,25.16,7.13,26.75,26.75,0,0,0,4.16.69,21.47,21.47,0,0,0,4,.69c3.94.44,7.88.82,11.81,1.23.2,0,.4,0,.51.21-1.65.32-11.21-.38-15.21-1.1a2.07,2.07,0,0,1-1.6.07,151.7,151.7,0,0,1-32.07-9.47c-3.57-1.46-7.05-3.11-10.57-4.69A4.13,4.13,0,0,1,410.54,344.36Z" transform="translate(-304.92 -196.3)"/><path class="cls-9" d="M433.92,274.07a21.35,21.35,0,0,1,.75,5.61c.15,3.25.11,6.5.51,9.88a16.79,16.79,0,0,1-3.08-2.5,3,3,0,0,1-1-2.7,44.49,44.49,0,0,1,.61-6.31,10,10,0,0,1,.83-2.45A3.34,3.34,0,0,1,433.92,274.07Z" transform="translate(-304.92 -196.3)"/><path class="cls-14" d="M409.35,347c-.46-.67-1.22-.76-1.89-1-.25-.09-.6-.16-.51-.51s.41-.42.75-.42.62.31.95.4a1.3,1.3,0,0,1,1.11.24A200.52,200.52,0,0,0,431.83,355c6.58,2.43,13.28,4.47,20.05,6.27a1.6,1.6,0,0,1,1.11.6c-.05.38-.27.37-.55.24-2.36-.41-4.65-1.08-7-1.69a185,185,0,0,1-26.9-9.17q-4.15-1.82-8.16-3.93C410.1,347.13,409.79,346.78,409.35,347Z" transform="translate(-304.92 -196.3)"/><path class="cls-12" d="M388.14,337.58c2.55-.19,4.4,1.23,6,3.18a1.41,1.41,0,0,1,.33,1.63,1.62,1.62,0,0,1-1.58.84c-2.84-.17-5.52-.8-7.67-2.83-1.07-1-.81-2.12.62-2.55A5.85,5.85,0,0,1,388.14,337.58Z" transform="translate(-304.92 -196.3)"/><path class="cls-9" d="M357.66,296.21a4.13,4.13,0,0,1-.24.53c-1.85,2.87-3.7,5.75-5.56,8.61a28.51,28.51,0,0,1-3.83,4.16c-.14.14-.3.3-.5.15s-.08-.38,0-.54a56.52,56.52,0,0,0,3.07-7.77,1.49,1.49,0,0,1,.56-.74c2-1.35,3-3.38,3.91-5.49a1.87,1.87,0,0,1,.17-.31A3.2,3.2,0,0,1,357.66,296.21Z" transform="translate(-304.92 -196.3)"/><path class="cls-9" d="M450.52,367.67a14.37,14.37,0,0,1-5.69,1.94l-.79.15c-.73.2-1.29-.27-1.9-.5-2-.76-3.9-1.68-5.88-2.46-.37-.14-.89-.21-.9-.79a.6.6,0,0,1,.52-.41,28.82,28.82,0,0,0,4.54-1.34c1.87.43,3.66,1.12,5.48,1.71,1.35.43,2.7.82,4.05,1.25C450.18,367.3,450.53,367.26,450.52,367.67Z" transform="translate(-304.92 -196.3)"/><path class="cls-15" d="M435.46,366.09c1.45.76,3,1.28,4.5,1.92l4.08,1.75c2,.88,4.11,1.77,6.11,2.75,3.09,1.53,6.21,3,9.27,4.59l9,4.66a2.48,2.48,0,0,1,1,.62l-.45.05a8.52,8.52,0,0,1-2.71-1c-4.78-2.37-9.52-4.8-14.35-7.06-.54-.25-1.09-.45-1.63-.69-1.22-.66-2.5-1.19-3.77-1.75s-2.44-1.09-3.67-1.62a2,2,0,0,1-1.06-.71c-2.66-1.29-5.38-2.47-8.16-3.52a91.7,91.7,0,0,1-10.28-4.22c-3.48-1.77-7.11-3.22-10.64-4.88l-.32-.14c-.39-.2-.95-.44-.72-.91s.74,0,1.07.12c1.39.64,2.65,1.53,4.08,2.08a5.15,5.15,0,0,1,2.41.83c4.94,2.25,10,4.28,15,6.34A2.7,2.7,0,0,1,435.46,366.09Z" transform="translate(-304.92 -196.3)"/><path class="cls-11" d="M346,332.73a4.84,4.84,0,0,1-.68,0c-.34-.06-.73-.09-.9-.46s.14-.66.39-.89a4.28,4.28,0,0,0,1.32-2.32,2.69,2.69,0,0,1,1.22-1.66,17.57,17.57,0,0,1,5-2.32,4,4,0,0,1,2.66.14c.87.35,1,.91.22,1.47a8.17,8.17,0,0,1-3.06,1.46,3.49,3.49,0,0,0-2.36,2,4.68,4.68,0,0,1-3.33,2.57A2.9,2.9,0,0,1,346,332.73Z" transform="translate(-304.92 -196.3)"/><path class="cls-3" d="M398.83,352.12a5.2,5.2,0,0,1-3.92-1.14.41.41,0,0,1-.29,0,6.28,6.28,0,0,1-.7-.55l-.07-.12c0-.45-.47-.59-.7-.89a3,3,0,0,1-.79-2.59,1.68,1.68,0,0,1,1.77-1.54,3.8,3.8,0,0,1,1.73.24,8.67,8.67,0,0,1,4.38,3.89c.62,1.13.52,1.51-.42,2.47-.5.29-.8-.15-1.16-.32s-.86-.52-1.31-.77a13.23,13.23,0,0,1-1.17-.66C396.93,350.86,398.29,350.93,398.83,352.12Z" transform="translate(-304.92 -196.3)"/><path class="cls-12" d="M383.82,336.78a8.37,8.37,0,0,1-2.95-.5,4.8,4.8,0,0,1-2.17-1.57,1.2,1.2,0,0,1,.22-1.85,2.7,2.7,0,0,1,.94-.48,8.52,8.52,0,0,1,6.08.48,4.82,4.82,0,0,1,1.86,1.91.82.82,0,0,1-.11,1,2.15,2.15,0,0,1-1.25.82A9.12,9.12,0,0,1,383.82,336.78Z" transform="translate(-304.92 -196.3)"/><path class="cls-16" d="M450.52,367.67q-5-1.73-10.11-3.2a4.73,4.73,0,0,1-1.62-.29c-7.61-2.51-15.18-5.14-22.54-8.35a6.06,6.06,0,0,1-1.68-1c-1.42-.73-2.84-1.45-4.25-2.19a2.24,2.24,0,0,1-.92-.69c-.09-.13-.19-.26-.11-.43a.37.37,0,0,1,.49-.19l2,.66a91,91,0,0,0,11.11,5.38c8.5,3.57,17.2,6.59,26,9.32,1.46.45,2.89,1,4.37,1.41,2,.58,4,1.23,6.06,1.85,0,.2,0,.33-.22.2-2.51-.73-5-1.46-7.53-2.21A4.64,4.64,0,0,0,450.52,367.67Z" transform="translate(-304.92 -196.3)"/><path class="cls-12" d="M393.77,335.06a8,8,0,0,1,4.55,1.76,10.81,10.81,0,0,1,2,1.84,1.45,1.45,0,0,1-.85,2.45,3.06,3.06,0,0,1-1.75-.08,11.73,11.73,0,0,1-5.16-3.17,1.57,1.57,0,0,1,0-2.48A1.7,1.7,0,0,1,393.77,335.06Z" transform="translate(-304.92 -196.3)"/><path class="cls-11" d="M327.79,317a4.25,4.25,0,0,1,2,.61c.6.41.72.91.19,1.36a37.45,37.45,0,0,1-6.59,4.74c-1,.53-1.45.18-1.42-1A5.79,5.79,0,0,1,327.79,317Z" transform="translate(-304.92 -196.3)"/><path class="cls-17" d="M442.14,306.84c-.31-.15-.63-.33-.95-.46a5.66,5.66,0,0,1-3.36-2.94l3.1,1.66c.61-.27,1.06.15,1.52.39a135.53,135.53,0,0,0,12.43,5.58c1.2.5,2.4,1,3.65,1.4a178.89,178.89,0,0,0,17.09,5.34,5.72,5.72,0,0,1,2.11.7.27.27,0,0,1,0,.34,44.61,44.61,0,0,1-5.71-1.33c-4.75-1.24-9.39-2.79-14-4.46-.22-.08-.44-.14-.67-.21a5.63,5.63,0,0,1-3.15-1.17l-11.66-4.63Z" transform="translate(-304.92 -196.3)"/><path class="cls-18" d="M452.44,362.09c.16-.08.38,0,.5-.23.44-.37.9-.13,1.34,0,3.17.73,6.37,1.35,9.48,2.33a39.67,39.67,0,0,0,4.71.95,20,20,0,0,0,3.6.52,19.67,19.67,0,0,0,3.79.66c3,.42,5.92.8,8.88,1.12s5.79.56,8.69.77,5.88.41,8.83.56a24,24,0,0,1,3.26.31,17.62,17.62,0,0,1-3.63.06c-2.71-.11-5.42-.27-8.13-.45q-4.47-.29-8.91-.83c-3-.38-6.08-.78-9.11-1.22q-5.3-.76-10.56-1.75-6.12-1.12-12.2-2.55A1,1,0,0,1,452.44,362.09Z" transform="translate(-304.92 -196.3)"/><path class="cls-19" d="M405.89,368.46a22.45,22.45,0,0,0-3.26-5,8.06,8.06,0,0,0-4.24-3.1,92.25,92.25,0,0,1-8.79-3.82l-3.54-1.87c.52-.32.8,0,1.09.14,1.45.7,2.88,1.42,4.31,2.14a1.88,1.88,0,0,0,1.1.36c2.16.81,4.32,1.62,6.39,2.59-.22-.4-.77-.62-.82-1.18a29.73,29.73,0,0,0-4-3.74,6.17,6.17,0,0,1-1.27-1.33c.63.13,1,.66,1.47,1a14.72,14.72,0,0,1,2.37,2.09c1,1.07,2.33,1.74,3.1,3,0,.07.29,0,.44,0a6.86,6.86,0,0,0,2.22,1.5c.42.19.91.32,1.13.79l-.27.19c-.61.16-.34.54-.23.89.59.87,1.16,1.75,1.78,2.59s1,1.67,1.52,2.49c.71.22.81.9,1.05,1.44s.54,1.21.8,1.82a5.12,5.12,0,0,1,.28,1.4c0,.24-.1.47-.4.52-.51-.29-.61-.83-.82-1.31-.46-1.13-1-2.24-1.46-3.37A.41.41,0,0,1,405.89,368.46Z" transform="translate(-304.92 -196.3)"/><path class="cls-20" d="M459,308.42a43.25,43.25,0,0,0,6.36,1.41,13.6,13.6,0,0,1,4.31.48c5.61.86,11.19,1.87,16.84,2.37,3.49.32,7,.06,10.5.14.62,0,1.28-.14,1.79.38-.36.34-.82.21-1.23.21-2.34,0-4.68,0-7,0-.42,0-.87-.15-1.23.19a1.53,1.53,0,0,1-1.43.32c-4.85-.48-9.67-1.17-14.47-2-3-.51-6.06-.92-9.05-1.59-2-.49-4.06-.83-6.07-1.36-3.29-.87-6.59-1.72-9.86-2.66a3.93,3.93,0,0,1-1.93-.77c-.08-.42.3-.31.49-.42,2.57.74,5.13,1.49,7.71,2.2A31.61,31.61,0,0,0,459,308.42Z" transform="translate(-304.92 -196.3)"/><path class="cls-21" d="M439.71,300.86a20.62,20.62,0,0,1-3-1.22,2.54,2.54,0,0,1-1.21-1.13c.44-.41.92-.21,1.4-.1a3.39,3.39,0,0,0,1.47.32,83.05,83.05,0,0,0,11.12,3.32c.47.1.89.29,1.34.42A56.29,56.29,0,0,1,439.71,300.86Z" transform="translate(-304.92 -196.3)"/><path class="cls-22" d="M474.39,304.14a24.25,24.25,0,0,0-4.34-.16c-1.93,0-3.84-.35-5.77-.24a26.8,26.8,0,0,0-3.35-.36c1.35-.18,2.69-.06,4-.11a17.73,17.73,0,0,0,3.41.17c2.32.05,4.64,0,7,.05,2.75.15,5.49.06,8.24,0a110.52,110.52,0,0,0,11.48-.92,14.78,14.78,0,0,1,1.63,0,.34.34,0,0,0,0,.14c-1.1.86-2.45.72-3.71.86a98.62,98.62,0,0,1-13.75.77c-1.14,0-2.26.32-3.41.23C475.3,304.52,474.76,304.61,474.39,304.14Z" transform="translate(-304.92 -196.3)"/><path class="cls-23" d="M447,305.16c-.1.22-.34.16-.5.24s-.2.17-.31.15a24.09,24.09,0,0,1-5.39-1.55c-.1,0-.13-.18-.17-.29l-5.24-1.64a8.52,8.52,0,0,1-1-.33c-.49-.23-.46-.7-.33-1.12a.67.67,0,0,1,.88-.4,5.43,5.43,0,0,1,.85.39,27.2,27.2,0,0,0,3.87,1.7C442.06,303.43,444.55,304.27,447,305.16Z" transform="translate(-304.92 -196.3)"/><path class="cls-24" d="M430.21,368.12c-4-2.21-8.08-4.2-12.21-6.11-.62-.28-1.31-.24-1.94-.46a.79.79,0,0,1,0-.62,3.89,3.89,0,0,1,2.13.54c3.32,1.41,6.46,3.17,9.64,4.87,1.3.7,2.55,1.52,3.92,2.1,2,.63,3.69,2,5.58,2.89.72.55,1.57.88,2.31,1.38.32.21.71.36.82.79a.31.31,0,0,1-.18.26c-1.13,0-1.86-.88-2.8-1.29-.49-.22-.93-.56-1.43-.78-1.78-1-3.56-2-5.3-3C430.54,368.53,430.26,368.44,430.21,368.12Z" transform="translate(-304.92 -196.3)"/><path class="cls-25" d="M355.31,289.66a31.34,31.34,0,0,0-4.9-3.05,6.33,6.33,0,0,0-1.42-.78l-.61-.4c.33-.26.56.11.83.08.6-.11,1,.33,1.54.51,1.66.87,3.25,1.86,4.82,2.88.64.57,1.55.82,2,1.62a10.34,10.34,0,0,0,3.2,1.81.66.66,0,0,1,.94.37.79.79,0,0,0,.18.14c.45.22.69.59.41,1s-.7.24-1.05.06a9.65,9.65,0,0,1-1-.59c-.23.13-.42,0-.61-.11-.91-.65-1.74-1.42-2.67-2C356.48,290.61,355.61,290.46,355.31,289.66Z" transform="translate(-304.92 -196.3)"/><path class="cls-24" d="M451.3,379.86a17.63,17.63,0,0,0,2.92,1.94c1.4.86,2.74,1.81,4.12,2.69l2.42,1.73c0,.19-.09.35-.33.21L456.74,384a28.44,28.44,0,0,0-3.48-2.37c-1.22-.78-2.46-1.52-3.69-2.28-.71.17-1.18-.32-1.69-.64-1.1-.69-2.21-1.35-3.32-2s-2.33-1.4-3.47-2.14c-.32-.21-.71-.35-.73-.83l.11-.13c.52-.21.92.11,1.31.35,1.2.74,2.45,1.41,3.67,2.13,1.6,1,3.22,1.92,4.82,2.91C450.66,379.21,451.13,379.36,451.3,379.86Z" transform="translate(-304.92 -196.3)"/><path class="cls-26" d="M357.66,296.21l-2.42-1.4L353,293.22a21.64,21.64,0,0,1-2.66-2.5v0c1.13.45,1.91,1.43,3,2,.88-.06,1.43.76,2.25.87,1,.46,2.2.41,3.24.86a.75.75,0,0,1,.24.26l.11,0c.28.23.87.23.78.72s-.66.59-1.11.66a5.78,5.78,0,0,1-.93,0Z" transform="translate(-304.92 -196.3)"/><path class="cls-27" d="M350.85,283.6l.24-.22,1.15.54,5.16,3.32a1.57,1.57,0,0,1,1.27.89c.72.71,1.67,1.13,2.56,1.85a15.29,15.29,0,0,1-2.82-.92,4.1,4.1,0,0,1-1.76-.77,41,41,0,0,1-5-3.68C351.31,284.33,350.89,284.12,350.85,283.6Z" transform="translate(-304.92 -196.3)"/><path class="cls-28" d="M477.76,318.85a.17.17,0,0,1,0-.19c.37-.39.81-.19,1.21-.1a184.91,184.91,0,0,0,22.59,3.3,7.22,7.22,0,0,1,2.64.44.28.28,0,0,1,0,.38,70,70,0,0,1-7.51-.61c-2.69-.28-5.37-.65-8-1.06-3.57-.54-7.11-1.2-10.64-1.95C477.93,319,477.85,318.92,477.76,318.85Z" transform="translate(-304.92 -196.3)"/><path class="cls-29" d="M459.08,370.11l.22-.2,11.56,3.33,7.85,2.27c.18.05.4,0,.46.28v0a5.12,5.12,0,0,1-2.15-.45c-5.86-1.64-11.7-3.31-17.55-5A1.6,1.6,0,0,1,459.08,370.11Z" transform="translate(-304.92 -196.3)"/><path class="cls-30" d="M394.93,351h0c.15.63.85.81,1.11,1.36l-.08.08a1,1,0,0,1-.59-.35,66.06,66.06,0,0,0-6.93-4.66,32.88,32.88,0,0,1-3.36-2.26c1.76.25,3.08,1.41,4.55,2.26,1.21.72,2.31,1.6,3.45,2.42.24.18.43.47.79.46l0,0C394.21,350.46,394.48,350.86,394.93,351Z" transform="translate(-304.92 -196.3)"/><path class="cls-31" d="M371.58,344.65c-.31-.69-1.18-.88-1.48-1.66a1.67,1.67,0,0,1,1.37.58c.37.34.65.8,1.14,1a23.25,23.25,0,0,0,5.18,4.51c.4.62,1.11.83,1.65,1.28.26.22.64.31.88.89a27.74,27.74,0,0,1-4-2.62c-.87.05-1.28-.68-1.84-1.12A13.42,13.42,0,0,1,371.58,344.65Z" transform="translate(-304.92 -196.3)"/><path class="cls-32" d="M454.22,311.68a22.06,22.06,0,0,1,3.15,1.17,16.21,16.21,0,0,1-3.77.91,2.07,2.07,0,0,1-.35,0c-.3,0-.67,0-.79-.35s.14-.52.35-.69C453.27,312.38,453.75,312,454.22,311.68Z" transform="translate(-304.92 -196.3)"/><path class="cls-33" d="M383.45,346.73a18.13,18.13,0,0,0-3.88-2.46,1.86,1.86,0,0,1,1.75.34,48.54,48.54,0,0,1,4,2.83,38.19,38.19,0,0,1,4.53,3.59l-.26.18C387.52,349.74,385.57,348.12,383.45,346.73Z" transform="translate(-304.92 -196.3)"/><path class="cls-34" d="M504.22,322.68l0-.24a10.82,10.82,0,0,1,4.05-.1,74.77,74.77,0,0,0,12.34.21,3.93,3.93,0,0,1,2.75.29c0,.34.18.74-.29.93,0-.27.25-.67-.33-.66-.35,0-.71,0-1.06,0a58.68,58.68,0,0,1-8.59.17c-2.82-.06-5.64-.3-8.46-.47A1.4,1.4,0,0,1,504.22,322.68Z" transform="translate(-304.92 -196.3)"/><path class="cls-35" d="M398.83,352.12l-3.51-2.27a1.27,1.27,0,0,1,1.21.22c1.11.58,2.19,1.2,3.29,1.8,1.31,1,2.72,1.86,4,2.94,0,.17-.07.32-.29.19Z" transform="translate(-304.92 -196.3)"/><path class="cls-36" d="M362.55,290.72c0-.45.43-.13.61-.26l3.53.55c.2.31.84.11.82.67,0,.26-1,.74-1.39.68a4.67,4.67,0,0,1-1.43-.49c-.24-.12-.39-.38-.69-.4C363.26,291.71,363,291.13,362.55,290.72Z" transform="translate(-304.92 -196.3)"/><path class="cls-5" d="M327.49,278.42a39.36,39.36,0,0,1,10.36.38,8.16,8.16,0,0,1-2.63-.05c-.9-.05-1.8-.07-2.7-.08s-1.73,0-2.59,0A5.93,5.93,0,0,1,327.49,278.42Z" transform="translate(-304.92 -196.3)"/><path class="cls-37" d="M441.86,384.49c.5-.71,1.2-.47,1.86-.4-.4.26-.91,0-1.37.31.87.91,1.73,1.8,2.58,2.71a32.11,32.11,0,0,1,2.32,2.75C445.36,388.16,443.59,386.35,441.86,384.49Z" transform="translate(-304.92 -196.3)"/><path class="cls-5" d="M460.43,386.43l.33-.21a52.26,52.26,0,0,1,5.24,4.13l-.11.12C464,389.2,462.22,387.81,460.43,386.43Z" transform="translate(-304.92 -196.3)"/><path class="cls-38" d="M371.24,357.26l6.48,3.76C376.55,360.92,372.49,358.64,371.24,357.26Z" transform="translate(-304.92 -196.3)"/><path class="cls-39" d="M458,393.93l-4.74-4.74A25.64,25.64,0,0,1,458,393.93Z" transform="translate(-304.92 -196.3)"/><path class="cls-40" d="M389.94,360.24a36.66,36.66,0,0,1-5.6-3.23l.13-.23,5.59,3.23Z" transform="translate(-304.92 -196.3)"/><path class="cls-5" d="M403.5,355l.28-.19a25.07,25.07,0,0,1,3.53,2.88.62.62,0,0,1,.26.49Z" transform="translate(-304.92 -196.3)"/><path class="cls-41" d="M452.61,396.07a21,21,0,0,1,2.73,3.76l-.1.09c-1.09-1.21-2-2.55-3-3.84A.22.22,0,0,1,452.61,396.07Z" transform="translate(-304.92 -196.3)"/><path class="cls-42" d="M451.43,395a26.84,26.84,0,0,1-2.35-2.84c0-.11.05-.16.16-.14a18.11,18.11,0,0,1,2.35,2.83C451.61,395,451.56,395,451.43,395Z" transform="translate(-304.92 -196.3)"/><path class="cls-43" d="M461.78,390.85a13.37,13.37,0,0,1,2.76,2.09c-.64,0-1-.54-1.5-.85s-.91-.71-1.36-1.07C461.57,390.87,461.6,390.81,461.78,390.85Z" transform="translate(-304.92 -196.3)"/><path class="cls-44" d="M450,386.22a10.72,10.72,0,0,1,2.34,2C451.54,388,451,387.56,450,386.22Z" transform="translate(-304.92 -196.3)"/><path class="cls-45" d="M458.32,394.15l2,2.18-.19.17a22.7,22.7,0,0,1-2-2.13Z" transform="translate(-304.92 -196.3)"/><path class="cls-29" d="M481.78,376.47a5.54,5.54,0,0,1-2.6-.71v0a5.65,5.65,0,0,1,2.6.7Z" transform="translate(-304.92 -196.3)"/><path class="cls-46" d="M449.08,392.13a5.16,5.16,0,0,1-1.3-1.66,4.92,4.92,0,0,1,1.46,1.52A1.07,1.07,0,0,1,449.08,392.13Z" transform="translate(-304.92 -196.3)"/><path class="cls-47" d="M467.22,391.32a4.64,4.64,0,0,1,1.42,1.15c0,.11,0,.16-.14.15a5.43,5.43,0,0,1-1.39-1.13C467,391.34,467,391.28,467.22,391.32Z" transform="translate(-304.92 -196.3)"/><path class="cls-3" d="M346.58,281.06a3.37,3.37,0,0,1-1.92-.73A3,3,0,0,1,346.58,281.06Z" transform="translate(-304.92 -196.3)"/><path class="cls-48" d="M465.5,393.77a2.32,2.32,0,0,1,1.27.89A1.7,1.7,0,0,1,465.5,393.77Z" transform="translate(-304.92 -196.3)"/><path class="cls-5" d="M466,390.35a4,4,0,0,1,1.22,1l-.11.17a5,5,0,0,1-1.22-1Z" transform="translate(-304.92 -196.3)"/><path class="cls-49" d="M452.61,396.07h-.34a5.32,5.32,0,0,1-.84-1.11.75.75,0,0,0,.16-.15A5.32,5.32,0,0,1,452.61,396.07Z" transform="translate(-304.92 -196.3)"/><path class="cls-50" d="M468.64,392.47a2.26,2.26,0,0,1,1,1,2.09,2.09,0,0,1-1.15-.82A.4.4,0,0,1,468.64,392.47Z" transform="translate(-304.92 -196.3)"/><path class="cls-15" d="M470.92,383.15c-.62.19-1-.11-1.19-.65Z" transform="translate(-304.92 -196.3)"/><path class="cls-5" d="M459.11,389a1.49,1.49,0,0,1,.95.69l0,.05a1.56,1.56,0,0,1-1-.66Z" transform="translate(-304.92 -196.3)"/><path class="cls-5" d="M367.58,355c-.34-.2-.8-.26-.91-.75v0c.39.14.82.24.9.76Z" transform="translate(-304.92 -196.3)"/><path class="cls-5" d="M461.68,391c-.32-.27-.81-.36-.94-.84h0a1.87,1.87,0,0,1,1,.67Z" transform="translate(-304.92 -196.3)"/><path class="cls-3" d="M344.69,280.35c-.36,0-.76,0-1-.38C344,280.25,344.47,280,344.69,280.35Z" transform="translate(-304.92 -196.3)"/><path class="cls-29" d="M482.48,376.73l1,0c-.47.18-.73.2-1-.07Z" transform="translate(-304.92 -196.3)"/><path class="cls-3" d="M341.65,287.24a.64.64,0,0,1,.16-.76.4.4,0,0,1,.31.31l0,.15Z" transform="translate(-304.92 -196.3)"/><path class="cls-5" d="M460.74,390.18c-.38.06-.56-.18-.72-.46l0-.05a.75.75,0,0,1,.68.51Z" transform="translate(-304.92 -196.3)"/><path class="cls-5" d="M459,389.06a.93.93,0,0,1-.7-.5l.08-.08a.86.86,0,0,1,.69.5Z" transform="translate(-304.92 -196.3)"/><path class="cls-41" d="M455.34,399.83a.64.64,0,0,1,.36.71,1,1,0,0,1-.46-.62Z" transform="translate(-304.92 -196.3)"/><path class="cls-5" d="M367.56,355c.38-.19.48.14.94.37a1,1,0,0,1-.92-.4Z" transform="translate(-304.92 -196.3)"/><path class="cls-3" d="M342.8,287.18c-.33,0-.71.13-.95-.24v0a.61.61,0,0,1,1,0Z" transform="translate(-304.92 -196.3)"/><path class="cls-3" d="M343.74,287.42c-.26,0-.56.11-.71-.24v0c.32-.18.63-.33.7.24Z" transform="translate(-304.92 -196.3)"/><path class="cls-29" d="M482.5,376.71c-.25-.06-.57.13-.72-.24v0c.25.05.57-.13.71.24Z" transform="translate(-304.92 -196.3)"/><path class="cls-20" d="M498.18,313.69a28.33,28.33,0,0,1-6.31,0C494,313.61,496.08,313.61,498.18,313.69Z" transform="translate(-304.92 -196.3)"/><path class="cls-20" d="M500.39,313.16c.24-.29,0-.5-.12-.73s-.51-.49-.5-.89a2.18,2.18,0,0,1,1,1.17C501,313.11,500.7,313.17,500.39,313.16Z" transform="translate(-304.92 -196.3)"/><path class="cls-5" d="M366.67,354.26h0v0Z" transform="translate(-304.92 -196.3)"/><path class="cls-5" d="M526.18,268.93c-.44-.16-.89-.32-1.34-.44a52.6,52.6,0,0,1-12.42-5.05c-4.71-2.65-9.18-5.66-13.65-8.67a195.27,195.27,0,0,1-19.94-15.88,57.86,57.86,0,0,1-9-10.1c-1.55-2.19-2.94-4.48-4.3-6.78a37.91,37.91,0,0,0-10.14-11.85c-5.16-3.77-10.81-5.46-17.23-3.79a8,8,0,0,0-5.78,4.7c-1,2.2-1.8,4.45-2.73,6.66a16.16,16.16,0,0,1-1.36,2.73,3.17,3.17,0,0,1-1.11-1.07c-2.14-2.68-4.3-5.33-6.4-8a49.83,49.83,0,0,0-13.58-12.3,18.41,18.41,0,0,0-9.15-2.74,13.11,13.11,0,0,0-7.91,1.9,23.31,23.31,0,0,0-8.81,10.53,33,33,0,0,0-1.74,19.11,42.51,42.51,0,0,1,.88,7,9,9,0,0,1-1.56,5.34,32.79,32.79,0,0,1-8.13,8.48,216.37,216.37,0,0,0-18.6,14.74,61.74,61.74,0,0,0-7.77,8.07c-1.36,1.74-2.5,3.63-3.93,5.31a4.39,4.39,0,0,0-.77,1.32c-.26.7-.65,1.05-1.5.77.32.35.73,0,1,.38-.35,1-.74,2.05-1,3.1a48.52,48.52,0,0,1-1.85,5.45,159.08,159.08,0,0,1-7.6,15.45,49.29,49.29,0,0,1-10.78,13.64,44.22,44.22,0,0,0-8.73,9.87c-.92,1.48-1.4,1.43-.14,3.2a.84.84,0,0,1,.11.21c1.52,2.93,3,5.88,4.56,8.79,1.21,2.26,2.57,4.43,3.72,6.71a7.43,7.43,0,0,0,3.06,3.33,47.81,47.81,0,0,1,7.63,5.32,13.33,13.33,0,0,1,4.28,5.78,2.3,2.3,0,0,0,.53.77c1.7,1.78,4.23,1.18,5.66-.6a8.27,8.27,0,0,1,3.16-2.38c.9-.42.88-.38,1.38.46a18.76,18.76,0,0,0,6,6.44,5.11,5.11,0,0,0,1.48.73c.94.23,1.53-.31,1.43-1.28,0-.22-.22-.43-.07-.7.53.24,1.05.49,1.59.72a4.31,4.31,0,0,0,1.58.42c1.33.05,1.92-.71,1.45-1.94a26.65,26.65,0,0,1-1.06-3.12,7.57,7.57,0,0,1,0-3.51c.27-1.14.29-1.17,1.45-1.34,1.78-.26,3.56-.57,5.34-.7,1.47-.1,3-.64,4.43.15,0-.17-.48-.42.1-.53a4.74,4.74,0,0,1,3.62.62c.63.41,1.22.87,1.86,1.25a4.32,4.32,0,0,0,3.6.6,15.59,15.59,0,0,1,3.92-.32c.74,0,1.5.15,2.24.08s1.21.5,2,.28a6.93,6.93,0,0,1,2.22,0c1.14.08,2.28.2,3.41.3a2.28,2.28,0,0,0-.88-.76,17.72,17.72,0,0,0,4,1.81,25.08,25.08,0,0,0,5.19,1.28c.5-.5-.09-.68-.3-.91s-.5-.53-.76-.78l.87.81c.79.74,1.33,1.78,2.45,2.13s1.91,1,2.92,1.35c.19.07.49.11.34.46a.91.91,0,0,0-.27.34,3.93,3.93,0,0,0-.28,1.07c1,1.69,2.13,3.31,3.29,4.89a.48.48,0,0,0,.31-.07c1.92-1.21,3.91-2.3,5.81-3.54a.6.6,0,0,1,.75-.07c.83.69,1.38,1.64,2.14,2.39a8,8,0,0,0,1.16,1.3c.19.13.4.31.62.11s.1-.43,0-.64a4.53,4.53,0,0,0-.74-1.05c-.75-.92-1.51-1.84-2.24-2.77.11-.92,1.17-1,1.53-1.69l0-.16c.18-1.72-.29-2.13-2-1.67-.74.19-1.46.47-2.29.75,0-1.18-.79-1.66-1.71-2-.64-.27-1.27-.58-1.9-.87a21.38,21.38,0,0,0-2.26-.58c-2.26-.42-4.43-1.05-6-2.86a1.07,1.07,0,0,0-.59-.37c-.68-.11-.4.36-.35.77-2.79-1.67-6-2.31-8.52-4.33a.41.41,0,0,0-.36.32c.18.38.7.46.86,1-2.3-.7-4.61-1.14-6.79-2a15.21,15.21,0,0,0-5.85-1.07,1.29,1.29,0,0,0,.32.6,10.61,10.61,0,0,0-1.82-1.2c-1.77.22-3.42.11-4.8-1.27-.77-.77-1.68-1.4-2.48-2.15a12.47,12.47,0,0,1-1.29-1.68c-.17-.21-.41-.41-.71-.27s-.32.5-.24.82a5.08,5.08,0,0,0,.82,1.28,28.55,28.55,0,0,0,4,3.39c-1.07,0-2.13-.53-3.28-.51a2.87,2.87,0,0,1-2.07-.93c-.62-.58-1.05-1.37-1.88-1.73-.19,0-.33.11-.26.35l2.17,2.44a50.47,50.47,0,0,0-6.33.62,1.18,1.18,0,0,1-.95-.35,23,23,0,0,1-2.7-2.23c-1.63-2.41-2.1-2.5-2.25-2.43a.46.46,0,0,0-.22.21c-.09.22.05.49.14.73a6,6,0,0,0,1.45,1.83c.79.83,1.77,1.44,2.62,2.22a23.82,23.82,0,0,0-2.35.47,1.21,1.21,0,0,1-1.3-.3,12.31,12.31,0,0,1-2-2.17,13.42,13.42,0,0,1-1.09-2.05c-.17-.35-.42-.81-.85-.62s-.32.74-.14,1.12a10.79,10.79,0,0,0,1.22,2c.6,1,1.58,1.61,2.22,2.56-.56.37-1.08.49-1.57.06a12.41,12.41,0,0,1-2.55-2.41,2.08,2.08,0,0,0-.47-.51c-.2-.15-.45-.42-.69-.14s0,.5.2.67a1.44,1.44,0,0,1,.27.22c.7,1.27,2.07,1.88,3,3l-2.86.56a19.86,19.86,0,0,0-8.23,3.34,3.07,3.07,0,0,1-1.76.63,3.07,3.07,0,0,0-1.73.67,1.68,1.68,0,0,1-1,.51A37.13,37.13,0,0,0,334,351a11.88,11.88,0,0,1-.58-1.54,2.28,2.28,0,0,1,0-1.74c1-1.87,1.66-3.92,3.16-5.5a11.68,11.68,0,0,0,2.06-2.72,2.69,2.69,0,0,0-.12-3.19c-.53-.7-.41-1,.39-1.49.52-.29,1.06-.52,1.59-.79a4.74,4.74,0,0,0,2.65-3,1.86,1.86,0,0,1,.6-1c1.45-1.19,2.57-2.79,4.37-3.55a1.6,1.6,0,0,0,.49-.32c.38-.34.3-.77-.19-.88a3.83,3.83,0,0,0-1.17,0,6.93,6.93,0,0,0-2.74,1,4.31,4.31,0,0,1-1.65.56,7.65,7.65,0,0,0-4.54,1.74c-.38.37-.74.42-1.1,0a6.39,6.39,0,0,0-2.27-1.45,26.71,26.71,0,0,0-13.5-2.71c-.45,0-.89,0-1.45,0a57.28,57.28,0,0,0,2.09-6.05,2.43,2.43,0,0,1,1.46-1.59,24,24,0,0,0,4.18-2.16,4,4,0,0,0,1.8-3.25,18.62,18.62,0,0,1,.25-2.59,6.11,6.11,0,0,1,2.37-4.19,7.6,7.6,0,0,0,2.3-2.32,12.52,12.52,0,0,1,1.22-1.6,12.81,12.81,0,0,0,1.67-2.56c1.36-2.67,2.44-5.45,3.59-8.21a8.8,8.8,0,0,0,.71-2.73,2.94,2.94,0,0,1,.42-.78,8.54,8.54,0,0,0,.55-2.45,2,2,0,0,1,.16-.83,14.85,14.85,0,0,0,1-3.21,1.23,1.23,0,0,1,.29-.74c1.06-1.56,2.24-3,3.23-4.65,3.56-5.82,7.81-11,13.6-14.84a121.19,121.19,0,0,0,12.7-10,100.15,100.15,0,0,0,8.55-8.81,4.92,4.92,0,0,0,1.11-2.18,13,13,0,0,0,.23-3.88c-.3-4.56-.17-9.12-.1-13.69a30.42,30.42,0,0,1,1.5-9,19,19,0,0,1,8.87-11,8.26,8.26,0,0,1,4.06-1.09,14.35,14.35,0,0,1,9,2.94,77.56,77.56,0,0,1,14,13.8c1.55,2,2.52,4.27,3.91,6.31.87,1.29.57,2.07-.28,3.12A131.42,131.42,0,0,1,405.81,245c-3.32,2.72-6.84,5.18-10.12,8a17.77,17.77,0,0,0-5.2,6.9c-1.58,3.85-3.28,7.66-4.9,11.5a14.77,14.77,0,0,1-3.64,5.17A26.67,26.67,0,0,1,377,280c-1.31.73-2.61,1.46-3.9,2.22a7.42,7.42,0,0,0-2.9,3c-.5,1-.11,1.63,1,1.7a7.44,7.44,0,0,0,1.76-.1,19.69,19.69,0,0,0,9.75-4.72,26.73,26.73,0,0,0,6.46-8.79c1-2.07,1.62-4.26,2.51-6.36a19.76,19.76,0,0,1,3.07-5.42,88.82,88.82,0,0,1,11.83-11.68c3.47-2.73,7-5.36,10.44-8.12a56.45,56.45,0,0,0,12.28-13.47c3-4.78,5.66-9.82,8.44-14.75a8,8,0,0,0,.89-2.18c.33-1.41.42-1.47,1.9-1.42a5,5,0,0,1,.94.08c6.11,1.28,11.3,4.06,14.94,9.3A104.08,104.08,0,0,0,470,235.1c2.54,2.42,5.05,4.85,7.78,7.06.86.69,1.66,1.45,2.47,2.2a62.23,62.23,0,0,0,8.38,6.71c1,.65,1.94,1.34,2.86,2.08a108.45,108.45,0,0,0,9.94,7,107.36,107.36,0,0,0,12.25,7.09A28.66,28.66,0,0,0,524.25,270a7.48,7.48,0,0,0,1.77,0c.3-.05.54-.2.56-.51A.55.55,0,0,0,526.18,268.93Zm-131.52,86.3-1.13-.91C393.91,354.62,394.29,354.92,394.66,355.23Zm-6.36.39A5,5,0,0,1,387,355,11.94,11.94,0,0,0,388.3,355.62Zm-8.65-4.9a7.77,7.77,0,0,1-1.07-.69A3.41,3.41,0,0,1,379.65,350.72ZM321.07,327.8c.67.48,1.34,1,2,1.49a3.36,3.36,0,0,0,2.41.75,13.27,13.27,0,0,0,2-.17,5.49,5.49,0,0,1,2.9.16c1.69.52,3.42.89,5.15,1.24a10.08,10.08,0,0,0,3.15,0,13.44,13.44,0,0,1-5.61,1.25,41.23,41.23,0,0,0-4.57.52,3,3,0,0,0-2.55,3.86,3.43,3.43,0,0,0,.95,1.74,4.41,4.41,0,0,1,1.12,4.35,8.73,8.73,0,0,0,.55,5.07,14.08,14.08,0,0,0,2.51,3.61,6.28,6.28,0,0,1-3.36-1.44,13.53,13.53,0,0,1-2.27-2.39,5.34,5.34,0,0,1-1.08-2.7,9.26,9.26,0,0,0-.22-1.28,1.7,1.7,0,0,0-1.28-1.4,6.59,6.59,0,0,1-3.83-3q-1.44-2.08-2.84-4.2a11.35,11.35,0,0,1-1.41-3.11,3.26,3.26,0,0,1-.18-1.15,3.66,3.66,0,0,1,.36-1.27,4.73,4.73,0,0,1,2-2,3.91,3.91,0,0,1,2.34-.68A3.38,3.38,0,0,1,321.07,327.8Z" transform="translate(-304.92 -196.3)"/><path class="cls-51" d="M344.28,357.19c1.24-.52,2.47-.2,3.6-.61a14.44,14.44,0,0,1,3.44-.75c-.28,1.27-.94,2.35-1.09,3.59a19.15,19.15,0,0,0-.26,4A17.4,17.4,0,0,1,344.28,357.19Z" transform="translate(-304.92 -196.3)"/><path class="cls-52" d="M415.28,366.69a5,5,0,0,0-2.33,1c-1.64,1.26-3.31,2.5-5,3.75-.69-1-.89-2.23-1.63-3.2l.07,0c2.08-1.47,4.35-2.64,6.51-4,.09,0,.23,0,.34,0A25.06,25.06,0,0,1,415.28,366.69Z" transform="translate(-304.92 -196.3)"/><path class="cls-53" d="M354.14,362.32c-2.87-1.33-2.69-1-1.95-3.88a8.14,8.14,0,0,1,1.25-2.7A11.26,11.26,0,0,0,354.14,362.32Z" transform="translate(-304.92 -196.3)"/><path class="cls-54" d="M398.13,358.75a7.3,7.3,0,0,1,1.55,1.63,52,52,0,0,1-7.12-3c1.16.1,2.18.72,3.33.89A21.39,21.39,0,0,0,398.13,358.75Z" transform="translate(-304.92 -196.3)"/><path class="cls-55" d="M413.28,364.32q-2.85,1.69-5.71,3.38a2.83,2.83,0,0,1-1.14.56c-.14-.29.06-.42.26-.54l4.23-2.53c.56-.34,1.11-.69,1.65-1.06C412.91,363.89,413.13,363.92,413.28,364.32Z" transform="translate(-304.92 -196.3)"/><path class="cls-54" d="M403.56,362.12l-1.8-.74a2.66,2.66,0,0,1-1.55-1.55l3.68,1.7c.18.09.38.15.27.4S403.79,362.13,403.56,362.12Z" transform="translate(-304.92 -196.3)"/><path class="cls-2" d="M415.6,362.05c-.33.94-1.19,1.35-1.91,1.89-.16-.11-.31-.28-.1-.44C414.25,363,414.93,362.53,415.6,362.05Z" transform="translate(-304.92 -196.3)"/><path class="cls-56" d="M403.06,363.2a5.41,5.41,0,0,1-.92-1c.46-.28.77.22,1.15.14C403.83,362.76,403.25,362.93,403.06,363.2Z" transform="translate(-304.92 -196.3)"/><path class="cls-3" d="M343,283.41c-.12.31-.56.18-.68.49a.6.6,0,0,1,.18-.72C342.6,283.45,342.8,283.46,343,283.41Z" transform="translate(-304.92 -196.3)"/><path class="cls-57" d="M364.61,380.4c-2.34,0-4.64.48-6.94.11a1.47,1.47,0,0,1-1.19-.64,24.24,24.24,0,0,1-2.23-6.14C356.59,377.7,360.25,379.56,364.61,380.4Z" transform="translate(-304.92 -196.3)"/><path class="cls-58" d="M348.77,373.51a4.8,4.8,0,0,1,.91,1.23,10.47,10.47,0,0,0,2.83,2.8,3,3,0,0,1,1.46,1.88c.08.34.37.61.34,1a6.9,6.9,0,0,1-2.56-.17c-.38,0-.58-.36-.78-.66A28.21,28.21,0,0,1,348.77,373.51Z" transform="translate(-304.92 -196.3)"/><path class="cls-2" d="M384.26,290.67a17.41,17.41,0,0,1-2.62,3.42,17.25,17.25,0,0,0-3.86,5.43,12.18,12.18,0,0,1-3.11,4,1.3,1.3,0,0,1-.13-1,13.66,13.66,0,0,0-.66-4.75,6.71,6.71,0,0,0-2.75-3.71c-.19-.13-.43-.19-.6-.52C375.08,292.65,379.63,291.9,384.26,290.67Z" transform="translate(-304.92 -196.3)"/><path class="cls-59" d="M366.65,314.6c-3.25-4.24-5-9.13-6.06-14.28a4.34,4.34,0,0,1,.67-4,.85.85,0,0,1,.16-.17,2.59,2.59,0,0,1,.29-.16,15.18,15.18,0,0,0-.55,3.48,10.48,10.48,0,0,0,.62,3.93,28,28,0,0,0,4.65,8.53,2.22,2.22,0,0,1,.45,2.67C366.81,314.7,366.73,314.71,366.65,314.6Z" transform="translate(-304.92 -196.3)"/><path class="cls-60" d="M369.59,308.92a4.72,4.72,0,0,1-1.1,1,35.56,35.56,0,0,1-2.64-5.55,23.65,23.65,0,0,1-1.8-8.12c0-1.25-.29-1.21,1.44-1.43a13.08,13.08,0,0,0,.36,7.49C366.66,304.68,367.5,307.11,369.59,308.92Z" transform="translate(-304.92 -196.3)"/><path class="cls-61" d="M370.38,304.77c0,.19.1.43-.09.54s-.46,0-.64-.18a2.36,2.36,0,0,1-.59-.87,23.85,23.85,0,0,1-1.58-6.27.51.51,0,0,1,.37-.65c.28-.07.44.12.56.34a10,10,0,0,1,.79,1.57A21.66,21.66,0,0,1,370.38,304.77Z" transform="translate(-304.92 -196.3)"/><path class="cls-62" d="M368.28,314.84a8.11,8.11,0,0,1,1.1-1.91,77.51,77.51,0,0,1,5.92-6A49.3,49.3,0,0,1,368.28,314.84Z" transform="translate(-304.92 -196.3)"/><path class="cls-63" d="M359.06,294.72l-.38-.14a1.52,1.52,0,0,1,1.13-1.48l.47.22C360,293.94,359.35,294.16,359.06,294.72Z" transform="translate(-304.92 -196.3)"/><path class="cls-64" d="M366.65,314.6h.23c.21.57.7.52,1.18.45,0,.48-.3.67-.58.92A3,3,0,0,1,366.65,314.6Z" transform="translate(-304.92 -196.3)"/><path class="cls-65" d="M356.63,288a8.86,8.86,0,0,1,1.78,1.05,6.08,6.08,0,0,0-.84,1.46,10.44,10.44,0,0,1-2-1.33C355.62,288.53,356.09,288.24,356.63,288Z" transform="translate(-304.92 -196.3)"/><path class="cls-66" d="M358.67,288.13a3.89,3.89,0,0,1-1.27-.89c.53-.35.93-.91,1.65-1.1A3.28,3.28,0,0,1,358.67,288.13Z" transform="translate(-304.92 -196.3)"/><path class="cls-26" d="M350.36,290.72c-.27.06-.4-.16-.79-.46.47.14.69.2.78.48Z" transform="translate(-304.92 -196.3)"/><path class="cls-67" d="M437.38,371.69c-1.88-1.07-3.79-2.08-5.61-3.25a43.94,43.94,0,0,1,8,1.05,4.69,4.69,0,0,0,2,.11,37.69,37.69,0,0,1,4.91,2.16,3,3,0,0,1-2.37.34C442,371.83,439.67,372.06,437.38,371.69Z" transform="translate(-304.92 -196.3)"/><path class="cls-68" d="M423.3,361.86c.29-.12.52,0,.77.14l9.26,3.87a1.21,1.21,0,0,1,.25.21,5.53,5.53,0,0,1-2.41-.38A48.12,48.12,0,0,1,423.3,361.86Z" transform="translate(-304.92 -196.3)"/><path class="cls-30" d="M396,352.34a3.5,3.5,0,0,1,1.27,1.18,3.71,3.71,0,0,1-1.35-1.1Z" transform="translate(-304.92 -196.3)"/><path class="cls-69" d="M430.21,368.12c2.08,1.06,4.09,2.24,6.1,3.42-.84.9-1.92.45-2.9.53a2.92,2.92,0,0,1-1.09-.27,3.07,3.07,0,0,1-.31-.17c-.18-.13-.37-.26-.57-.38l-.28-.18c-1-.73-2.08-1.38-3.11-2.1-.4-.28-.88-.53-.9-1.13Z" transform="translate(-304.92 -196.3)"/><path class="cls-69" d="M420.35,367.09c.67-.16,1.32.14,2,.05,1-.05,1.68.71,2.51,1.09.54.24,1,.64,1.52.9l.29.18c.89.65,1.84,1.21,2.72,1.86.3.21.85.35.57.94a5.45,5.45,0,0,1-1.73.32c-2.08-1.34-4.1-2.77-6.25-4l0,0C421.44,368,420.65,367.85,420.35,367.09Z" transform="translate(-304.92 -196.3)"/><path class="cls-70" d="M423.9,367.47l1.92.06c.64-.16,1,.36,1.4.67,1.34,1.06,2.8,1.93,4.22,2.85h0c.23.18.5.31.73.49l0,0a.18.18,0,0,1,.08.18c0,.07,0,.11,0,.11a3.13,3.13,0,0,1-1.1.38,1.39,1.39,0,0,1-.5,0,1.05,1.05,0,0,1-.29-.17,36.83,36.83,0,0,0-3.83-2.6l0,0C425.65,368.72,424.54,368.4,423.9,367.47Z" transform="translate(-304.92 -196.3)"/><path class="cls-71" d="M431.44,371.05c-.46.12-.71-.27-1-.47-1.54-1-3.07-2-4.6-3.05-.06-.21-.4-.36-.2-.6s.36,0,.5.12c.35.25.69.52,1,.79a25.16,25.16,0,0,0,3.46,2.5C430.9,370.56,431.33,370.62,431.44,371.05Z" transform="translate(-304.92 -196.3)"/><path class="cls-5" d="M420.35,367.09c.47.54,1.26.72,1.64,1.37a10.55,10.55,0,0,1-2.16-1.12,4.13,4.13,0,0,0-1.39-.57c-.34-.35-.91-.45-1.13-1,.24-.29.49-.18.72-.05C418.81,366.19,419.58,366.64,420.35,367.09Z" transform="translate(-304.92 -196.3)"/><path class="cls-72" d="M423.9,367.47a14.76,14.76,0,0,1,2.58,1.94c-.58,0-1-.47-1.42-.73a30.38,30.38,0,0,0-2.73-1.54c-.28-.19-.63-.29-.85-.72C422.55,366.34,423.12,367.15,423.9,367.47Z" transform="translate(-304.92 -196.3)"/><path class="cls-73" d="M437.38,371.69a44.23,44.23,0,0,1,5.4,0l3.87.11a24.51,24.51,0,0,1,3.77,1.69,15.19,15.19,0,0,1-3.73,2.09c-.47.25-1,.44-1.48.66l-3.61-2.05a4.29,4.29,0,0,0-1.13-.57C439.51,372.83,438.39,372.35,437.38,371.69Z" transform="translate(-304.92 -196.3)"/><path class="cls-2" d="M394.93,351c-.56,0-.85-.32-1.11-.72C394.34,350.27,394.56,350.74,394.93,351Z" transform="translate(-304.92 -196.3)"/><path class="cls-73" d="M454.87,311.35a42.82,42.82,0,0,0,3.52-2.62c2,.45,4,.79,6,1.4a32.9,32.9,0,0,1-5,2.1,3.66,3.66,0,0,0-1.08.44A19.57,19.57,0,0,1,454.87,311.35Z" transform="translate(-304.92 -196.3)"/><path class="cls-9" d="M407.44,371.88a66.53,66.53,0,0,1-6.33,4.31,10,10,0,0,1-5.37,1.51c-.44,0-.87,0-1.3.05a5.46,5.46,0,0,0-4.11,2.26,1.66,1.66,0,0,1-1.36.73c-4.31.35-8.59.93-12.88,1.53a2.82,2.82,0,0,1-1.72-.07c11.08-3.19,21.77-7.26,31.54-13.47A14.57,14.57,0,0,1,407.44,371.88Z" transform="translate(-304.92 -196.3)"/><path class="cls-5" d="M409,376.5a16.8,16.8,0,0,1-.9-3.09c.17-.13.17-.33.23-.51A9.1,9.1,0,0,1,409,376.5Z" transform="translate(-304.92 -196.3)"/><path class="cls-74" d="M430.9,372l1.19-.23c1.2.12,1.87,1.18,2.76,1.54-.48-.51-1.42-.66-1.84-1.48,1.09-.2,2.21,0,3.3-.27,1,.44,1.94,1.08,2.92,1.61a3.73,3.73,0,0,0,1.13.56c1.3,1,2.8,1.69,4.13,2.62a9.84,9.84,0,0,1-3,.62c-.47,0-.16.29-.15.46a5.25,5.25,0,0,0-2.82-.42c-1.45,0-2.89,0-4.33,0-.62.17-.91-.34-1.28-.63-1.34-1.07-2.67-2.15-4.05-3.17-.3-.23-.8-.39-.71-.95a10.38,10.38,0,0,1,1.84-.3.46.46,0,0,1,.5,0h0c2.09,1.39,4.18,2.76,6.46,4.31-1.83-1.28-3.52-2.34-5.15-3.47C431.47,372.58,431,372.47,430.9,372Z" transform="translate(-304.92 -196.3)"/><path class="cls-3" d="M344.22,283.89l-.57,0c-.1,0-.23,0-.13-.17s.14-.05.21-.07S344.17,283.59,344.22,283.89Z" transform="translate(-304.92 -196.3)"/><path class="cls-75" d="M350.58,286.18a9.06,9.06,0,0,1,1.28-1.69c1.59,1.18,3.12,2.44,4.77,3.52a6.11,6.11,0,0,1-1.09,1.18Z" transform="translate(-304.92 -196.3)"/><path class="cls-76" d="M355.63,293.93l1.63-2.87a17.28,17.28,0,0,1,2.55,2l-1.13,1.48A13.94,13.94,0,0,1,355.63,293.93Z" transform="translate(-304.92 -196.3)"/><path class="cls-4" d="M433.31,376.92c-6,.05-11.9,1.13-17.82,1.92a14.31,14.31,0,0,0-2.74.7,39.27,39.27,0,0,0-6.28,2.71,26,26,0,0,1-7,2.55c-5.14,1.15-10.27,2.36-15.5,3.11a40.81,40.81,0,0,1-10.24,0,57.17,57.17,0,0,1-9.6-1.88,20.76,20.76,0,0,0-3.84-.61c-.39,0-.78-.07-1.17-.14-.22,0-.5-.07-.55-.36s.22-.48.47-.58a8,8,0,0,1,4.4-.52,27.83,27.83,0,0,0,4.83.24c2.4-.07,4.8,0,7.2,0,6.26,0,12.53-.05,18.63-1.73a71.2,71.2,0,0,0,7.66-2.74l7.09-2.93c.19.16.24,0,.29-.13a67.41,67.41,0,0,1,16.89-4.19c.43-.06.85-.15,1.28-.22,1.06.25,1.71,1.12,2.55,1.68,1,.68,1.87,1.53,2.85,2.23C433,376.3,433.39,376.47,433.31,376.92Z" transform="translate(-304.92 -196.3)"/><path class="cls-5" d="M433.31,376.92a60.12,60.12,0,0,0-5.95-4.72c-1.44-1.12-3-2-4.52-3.06-.3-.22-.71-.32-.88-.7a28.22,28.22,0,0,1,5,2.95l1.24.85,6,4.75c.36.66,1.24.87,1.5,1.63-.62-.08-.91-.65-1.37-.95S433.65,377.17,433.31,376.92Z" transform="translate(-304.92 -196.3)"/><path class="cls-5" d="M409.19,376.61l-.08.73c-.09-.27-.15-.43-.21-.6l.06-.28Z" transform="translate(-304.92 -196.3)"/><path class="cls-9" d="M349.74,384.28l.93.4a49.46,49.46,0,0,0,5.38,2.09,8.3,8.3,0,0,0,3.5.32,4.06,4.06,0,0,1,3.4,1,4,4,0,0,0,3.06,1,13.85,13.85,0,0,1,5.23.73,7.08,7.08,0,0,1,.77.28.38.38,0,0,1,.24.37c0,.2-.17.25-.32.27-.55.07-1.1.16-1.64.19a5.09,5.09,0,0,0-1.5.32,2.38,2.38,0,0,0-1.66,1.84,5.1,5.1,0,0,1-1.42,2.66c-.78.81-1.25.76-1.87-.15a10.4,10.4,0,0,1-.56-.9,3.58,3.58,0,0,0-2.8-2.09,4.3,4.3,0,0,1-1.62-.69l-7-4a7.83,7.83,0,0,1-2.54-2.25,3.38,3.38,0,0,1-.38-.6C348.75,384.46,349,384.18,349.74,384.28Z" transform="translate(-304.92 -196.3)"/><path class="cls-5" d="M442.05,377.89a1.48,1.48,0,0,1,1.22.73A1.63,1.63,0,0,1,442.05,377.89Z" transform="translate(-304.92 -196.3)"/><path class="cls-5" d="M441.34,377.41a.69.69,0,0,1,.74.5A.77.77,0,0,1,441.34,377.41Z" transform="translate(-304.92 -196.3)"/><path class="cls-77" d="M433,371.81l2.38,1.67c-1.26-.28-2.15-1.23-3.3-1.73l0-.24C432.5,371.41,432.69,371.8,433,371.81Z" transform="translate(-304.92 -196.3)"/><path class="cls-71" d="M432.15,371.53a.6.6,0,0,1-.73-.49A.65.65,0,0,1,432.15,371.53Z" transform="translate(-304.92 -196.3)"/><path class="cls-78" d="M430.5,372l-.5,0c-1-.67-2-1.34-3-2-.2-.14-.54-.16-.52-.53.33-.14.52.12.72.27A21.87,21.87,0,0,1,430.5,372Z" transform="translate(-304.92 -196.3)"/><path class="cls-79" d="M430.9,372l5.85,4a2,2,0,0,1,.76.66c-.4.1-.56-.18-.77-.32q-2.82-1.83-5.61-3.68c-.25-.17-.6-.24-.64-.63Z" transform="translate(-304.92 -196.3)"/><path class="cls-2" d="M506,320.05" transform="translate(-304.92 -196.3)"/></svg>
